<?xml version="1.0" encoding="UTF-8"?>
<!DOCTYPE svg PUBLIC "-//W3C//DTD SVG 1.1//EN" "http://www.w3.org/Graphics/SVG/1.1/DTD/svg11.dtd">
<svg xmlns="http://www.w3.org/2000/svg" version="1.1" width="1088px" height="236px" style="shape-rendering:geometricPrecision; text-rendering:geometricPrecision; image-rendering:optimizeQuality; fill-rule:evenodd; clip-rule:evenodd" xmlns:xlink="http://www.w3.org/1999/xlink">
<g><path style="opacity:1" fill="#f2ea3c" d="M 1019.5,174.5 C 718.835,172.501 417.835,171.834 116.5,172.5C 83.5,171.833 50.5,171.167 17.5,170.5C 27.5959,122.185 38.2625,74.0184 49.5,26C 385.167,25.5 720.833,25.3333 1056.5,25.5C 1044.93,75.4634 1032.59,125.13 1019.5,174.5 Z"/></g>
<g><path style="opacity:1" fill="#817b2e" d="M 17.5,170.5 C 50.5,171.167 83.5,171.833 116.5,172.5C 83.1667,172.5 49.8333,172.5 16.5,172.5C 16.3284,171.508 16.6618,170.842 17.5,170.5 Z"/></g>
<g><path style="opacity:1" fill="#0e0c1d" d="M 16.5,172.5 C 49.8333,172.5 83.1667,172.5 116.5,172.5C 417.835,171.834 718.835,172.501 1019.5,174.5C 1019.48,176.565 1019.15,178.565 1018.5,180.5C 1003.07,181.152 987.735,181.819 972.5,182.5C 895.504,183.365 818.504,183.698 741.5,183.5C 499.5,183.5 257.5,183.5 15.5,183.5C 15.5,182.167 15.5,180.833 15.5,179.5C 15.6741,177.139 16.0074,174.806 16.5,172.5 Z"/></g>
<g><path style="opacity:1" fill="#53515d" d="M 1018.5,180.5 C 1003.54,182.484 988.203,183.151 972.5,182.5C 987.735,181.819 1003.07,181.152 1018.5,180.5 Z"/></g>
<g><path style="opacity:1" fill="#c3c3c7" d="M 15.5,179.5 C 15.5,180.833 15.5,182.167 15.5,183.5C 257.5,183.5 499.5,183.5 741.5,183.5C 499.334,184.5 257.001,184.833 14.5,184.5C 14.2155,182.585 14.5489,180.919 15.5,179.5 Z"/></g>
</svg>
