<?xml version="1.0" encoding="UTF-8"?>
<!DOCTYPE svg PUBLIC "-//W3C//DTD SVG 1.1//EN" "http://www.w3.org/Graphics/SVG/1.1/DTD/svg11.dtd">
<svg xmlns="http://www.w3.org/2000/svg" version="1.1" width="794px" height="135px" style="shape-rendering:geometricPrecision; text-rendering:geometricPrecision; image-rendering:optimizeQuality; fill-rule:evenodd; clip-rule:evenodd" xmlns:xlink="http://www.w3.org/1999/xlink">
<g><path style="opacity:1" fill="#231f20" d="M -0.5,-0.5 C 103.5,-0.5 207.5,-0.5 311.5,-0.5C 292.823,6.50629 274.157,13.5063 255.5,20.5C 238.335,24.9987 221.669,30.6654 205.5,37.5C 189.335,41.6654 173.668,46.9988 158.5,53.5C 139.591,58.4686 121.257,64.802 103.5,72.5C 87.335,76.6654 71.6684,81.9988 56.5,88.5C 37.3782,94.0961 18.3782,100.096 -0.5,106.5C -0.5,70.8333 -0.5,35.1667 -0.5,-0.5 Z"/></g>
<g><path style="opacity:1" fill="#f0a73f" d="M 311.5,-0.5 C 321.167,-0.5 330.833,-0.5 340.5,-0.5C 313.884,10.2982 286.884,20.2982 259.5,29.5C 258.686,27.369 258.186,25.0356 258,22.5C 257.583,21.244 256.75,20.5774 255.5,20.5C 274.157,13.5063 292.823,6.50629 311.5,-0.5 Z"/></g>
<g><path style="opacity:1" fill="#efb13e" d="M 255.5,20.5 C 256.75,20.5774 257.583,21.244 258,22.5C 258.186,25.0356 258.686,27.369 259.5,29.5C 242.807,36.401 225.807,42.7343 208.5,48.5C 206.617,45.4772 206.283,42.3105 207.5,39C 207.164,37.9701 206.497,37.4701 205.5,37.5C 221.669,30.6654 238.335,24.9987 255.5,20.5 Z"/></g>
<g><path style="opacity:1" fill="#f1bd3f" d="M 205.5,37.5 C 206.497,37.4701 207.164,37.9701 207.5,39C 206.283,42.3105 206.617,45.4772 208.5,48.5C 192.325,54.892 175.992,60.892 159.5,66.5C 161.073,61.9146 160.739,57.5812 158.5,53.5C 173.668,46.9988 189.335,41.6654 205.5,37.5 Z"/></g>
<g><path style="opacity:1" fill="#262223" d="M 409.5,54.5 C 408.596,55.209 408.263,56.209 408.5,57.5C 413.833,57.5 419.167,57.5 424.5,57.5C 426.243,58.6409 427.243,60.3076 427.5,62.5C 426.83,67.1964 425.996,71.8631 425,76.5C 424.535,77.9308 423.701,79.0975 422.5,80C 414.507,80.4997 406.507,80.6664 398.5,80.5C 397.833,77.1667 397.167,73.8333 396.5,70.5C 403.451,71.0659 410.118,70.3993 416.5,68.5C 417.434,67.4324 417.768,66.099 417.5,64.5C 411.833,64.5 406.167,64.5 400.5,64.5C 399.883,64.3893 399.383,64.056 399,63.5C 398.088,56.1489 399.255,49.1489 402.5,42.5C 412.113,41.5257 421.78,41.1924 431.5,41.5C 430.833,44.8333 430.167,48.1667 429.5,51.5C 423.158,51.3338 416.825,51.5005 410.5,52C 409.748,52.6708 409.414,53.5041 409.5,54.5 Z"/></g>
<g><path style="opacity:1" fill="#292526" d="M 434.5,41.5 C 438.167,41.5 441.833,41.5 445.5,41.5C 443.915,51.1833 442.248,60.8499 440.5,70.5C 444.03,71.0111 447.196,70.3444 450,68.5C 451.455,59.4794 452.955,50.4794 454.5,41.5C 457.833,41.5 461.167,41.5 464.5,41.5C 462.732,54.6814 460.398,67.6814 457.5,80.5C 448.167,80.5 438.833,80.5 429.5,80.5C 430.509,67.4195 432.176,54.4195 434.5,41.5 Z"/></g>
<g><path style="opacity:1" fill="#292526" d="M 469.5,41.5 C 479.263,40.8761 488.763,41.5427 498,43.5C 498.077,49.2206 497.41,54.8872 496,60.5C 495.215,62.286 494.049,63.786 492.5,65C 486.843,65.4994 481.176,65.6661 475.5,65.5C 474.097,70.3909 473.43,75.3909 473.5,80.5C 469.833,80.5 466.167,80.5 462.5,80.5C 464.915,67.5179 467.248,54.5179 469.5,41.5 Z M 486.5,56.5 C 482.988,57.0545 479.988,56.3878 477.5,54.5C 477.414,53.5041 477.748,52.6708 478.5,52C 481.554,51.1786 484.554,51.3452 487.5,52.5C 486.754,53.7362 486.421,55.0695 486.5,56.5 Z"/></g>
<g><path style="opacity:1" fill="#272324" d="M 509.5,54.5 C 508.596,55.209 508.263,56.209 508.5,57.5C 513.167,57.5 517.833,57.5 522.5,57.5C 522.5,58.5 522.5,59.5 522.5,60.5C 522.5,62.1667 522.5,63.8333 522.5,65.5C 517.5,65.5 512.5,65.5 507.5,65.5C 507.579,66.9305 507.246,68.2638 506.5,69.5C 513.142,70.3309 519.809,70.8309 526.5,71C 524.306,73.6947 522.306,76.528 520.5,79.5C 511.859,80.498 503.192,80.8314 494.5,80.5C 496.961,67.5259 499.295,54.5259 501.5,41.5C 511.506,41.3335 521.506,41.5002 531.5,42C 529.306,44.6947 527.306,47.528 525.5,50.5C 520.533,51.329 515.533,51.829 510.5,52C 509.748,52.6708 509.414,53.5041 509.5,54.5 Z"/></g>
<g><path style="opacity:1" fill="#2a2627" d="M 533.5,41.5 C 542.887,41.1934 552.22,41.5267 561.5,42.5C 561.833,44.1667 562.167,45.8333 562.5,47.5C 561.828,52.5221 560.995,57.5221 560,62.5C 558.266,64.4506 556.099,65.4506 553.5,65.5C 554.081,70.2472 555.081,74.9138 556.5,79.5C 553.232,80.487 549.898,80.8204 546.5,80.5C 544.732,73.832 542.899,67.1654 541,60.5C 539.833,67.1768 538.666,73.8435 537.5,80.5C 534.167,80.5 530.833,80.5 527.5,80.5C 528.987,67.404 530.987,54.404 533.5,41.5 Z M 542.5,51.5 C 545.5,51.5 548.5,51.5 551.5,51.5C 551.5,53.1667 551.5,54.8333 551.5,56.5C 548.167,56.5 544.833,56.5 541.5,56.5C 541.366,54.7085 541.699,53.0418 542.5,51.5 Z"/></g>
<g><path style="opacity:1" fill="#282526" d="M 587.5,41.5 C 597.5,41.5 607.5,41.5 617.5,41.5C 616.793,44.7861 616.46,48.1194 616.5,51.5C 612.894,51.2108 609.394,51.5442 606,52.5C 604.178,61.7876 602.678,71.1209 601.5,80.5C 597.833,80.5 594.167,80.5 590.5,80.5C 592.631,70.9178 594.298,61.2511 595.5,51.5C 592.5,51.5 589.5,51.5 586.5,51.5C 586.46,48.1194 586.793,44.7861 587.5,41.5 Z"/></g>
<g><path style="opacity:1" fill="#292526" d="M 628.5,60.5 C 627.833,57.8333 627.167,57.8333 626.5,60.5C 626.142,67.2645 625.142,73.9312 623.5,80.5C 620.167,80.5 616.833,80.5 613.5,80.5C 615.5,67.5 617.5,54.5 619.5,41.5C 629.083,41.1816 638.583,41.5149 648,42.5C 648.781,43.7287 649.281,45.062 649.5,46.5C 648.178,51.0773 647.344,55.744 647,60.5C 645.391,63.5616 642.891,65.5616 639.5,66.5C 640.52,71.1905 641.52,75.8571 642.5,80.5C 639.167,80.5 635.833,80.5 632.5,80.5C 630.948,73.8526 629.615,67.1859 628.5,60.5 Z M 637.5,56.5 C 633.988,57.0545 630.988,56.3878 628.5,54.5C 628.5,53.5 628.5,52.5 628.5,51.5C 631.5,51.5 634.5,51.5 637.5,51.5C 637.5,53.1667 637.5,54.8333 637.5,56.5 Z"/></g>
<g><path style="opacity:1" fill="#2a2627" d="M 653.5,41.5 C 656.833,41.5 660.167,41.5 663.5,41.5C 662.648,50.9793 660.982,60.3126 658.5,69.5C 661.768,70.487 665.102,70.8204 668.5,70.5C 670.079,60.8641 671.413,51.1974 672.5,41.5C 676.167,41.5 679.833,41.5 683.5,41.5C 681.325,54.2422 678.825,66.9089 676,79.5C 666.667,80.8333 657.333,80.8333 648,79.5C 649.112,66.7626 650.946,54.096 653.5,41.5 Z"/></g>
<g><path style="opacity:1" fill="#272324" d="M 689.5,41.5 C 698.833,41.5 708.167,41.5 717.5,41.5C 716.833,44.8333 716.167,48.1667 715.5,51.5C 709.158,51.3338 702.825,51.5005 696.5,52C 694.478,57.6627 693.145,63.496 692.5,69.5C 699.167,70.1667 705.833,70.8333 712.5,71.5C 711.358,74.3992 710.692,77.3992 710.5,80.5C 700.917,80.8184 691.417,80.4851 682,79.5C 682.847,67.7601 684.514,56.0934 687,44.5C 687.698,43.3094 688.531,42.3094 689.5,41.5 Z"/></g>
<g><path style="opacity:1" fill="#2d292a" d="M 719.5,41.5 C 722.833,41.5 726.167,41.5 729.5,41.5C 729.3,46.264 728.8,50.9306 728,55.5C 731.5,51 735,46.5 738.5,42C 742.167,41.3333 745.833,41.3333 749.5,42C 745.167,47 740.833,52 736.5,57C 738.806,64.752 740.806,72.5853 742.5,80.5C 738.833,80.5 735.167,80.5 731.5,80.5C 730.705,73.6956 729.205,67.0289 727,60.5C 725.18,67.0589 724.014,73.7255 723.5,80.5C 719.833,80.5 716.167,80.5 712.5,80.5C 714.961,67.5259 717.295,54.5259 719.5,41.5 Z"/></g>
<g><path style="opacity:1" fill="#282425" d="M 759.5,54.5 C 758.596,55.209 758.263,56.209 758.5,57.5C 763.5,57.5 768.5,57.5 773.5,57.5C 775.99,58.1081 777.324,59.7748 777.5,62.5C 776.178,67.0773 775.344,71.744 775,76.5C 774.085,77.3279 773.419,78.3279 773,79.5C 768.915,80.1515 764.748,80.4849 760.5,80.5C 756.075,80.4626 751.909,79.7959 748,78.5C 747.548,75.8506 746.714,73.3506 745.5,71C 752.191,70.8309 758.858,70.3309 765.5,69.5C 766.246,68.2638 766.579,66.9305 766.5,65.5C 761.156,65.666 755.823,65.4994 750.5,65C 748.61,63.9219 747.61,62.2552 747.5,60C 748.902,54.5574 750.069,49.0574 751,43.5C 751.75,42.8742 752.584,42.3742 753.5,42C 762.494,41.5002 771.494,41.3336 780.5,41.5C 780.54,44.8806 780.207,48.2139 779.5,51.5C 772.833,51.5 766.167,51.5 759.5,51.5C 759.5,52.5 759.5,53.5 759.5,54.5 Z"/></g>
<g><path style="opacity:1" fill="#f3c840" d="M 158.5,53.5 C 160.739,57.5812 161.073,61.9146 159.5,66.5C 141.736,73.7552 123.736,80.4218 105.5,86.5C 105.665,82.8183 105.499,79.1516 105,75.5C 104.768,74.2625 104.268,73.2625 103.5,72.5C 121.257,64.802 139.591,58.4686 158.5,53.5 Z"/></g>
<g><path style="opacity:1" fill="#838181" d="M 409.5,54.5 C 414.251,56.1413 419.251,57.1413 424.5,57.5C 419.167,57.5 413.833,57.5 408.5,57.5C 408.263,56.209 408.596,55.209 409.5,54.5 Z"/></g>
<g><path style="opacity:1" fill="#828081" d="M 477.5,54.5 C 479.988,56.3878 482.988,57.0545 486.5,56.5C 483.375,57.4794 480.042,57.8128 476.5,57.5C 476.263,56.209 476.596,55.209 477.5,54.5 Z"/></g>
<g><path style="opacity:1" fill="#868484" d="M 509.5,54.5 C 513.715,56.4364 518.381,57.1031 523.5,56.5C 523.768,58.099 523.434,59.4324 522.5,60.5C 522.5,59.5 522.5,58.5 522.5,57.5C 517.833,57.5 513.167,57.5 508.5,57.5C 508.263,56.209 508.596,55.209 509.5,54.5 Z"/></g>
<g><path style="opacity:1" fill="#8b898a" d="M 628.5,54.5 C 630.988,56.3878 633.988,57.0545 637.5,56.5C 634.375,57.4794 631.042,57.8128 627.5,57.5C 627.263,56.209 627.596,55.209 628.5,54.5 Z"/></g>
<g><path style="opacity:1" fill="#807f7f" d="M 759.5,54.5 C 763.913,56.1384 768.579,57.1384 773.5,57.5C 768.5,57.5 763.5,57.5 758.5,57.5C 758.263,56.209 758.596,55.209 759.5,54.5 Z"/></g>
<g><path style="opacity:1" fill="#c4c3c3" d="M 628.5,60.5 C 627.833,60.5 627.167,60.5 626.5,60.5C 627.167,57.8333 627.833,57.8333 628.5,60.5 Z"/></g>
<g><path style="opacity:1" fill="#7e7b7c" d="M 400.5,64.5 C 406.167,64.5 411.833,64.5 417.5,64.5C 417.768,66.099 417.434,67.4324 416.5,68.5C 416.5,67.5 416.5,66.5 416.5,65.5C 410.974,65.8214 405.64,65.4881 400.5,64.5 Z"/></g>
<g><path style="opacity:1" fill="#f4d441" d="M 103.5,72.5 C 104.268,73.2625 104.768,74.2625 105,75.5C 105.499,79.1516 105.665,82.8183 105.5,86.5C 90.389,92.7202 75.0556,98.3868 59.5,103.5C 59.5,98.5 59.5,93.5 59.5,88.5C 58.5,88.5 57.5,88.5 56.5,88.5C 71.6684,81.9988 87.335,76.6654 103.5,72.5 Z"/></g>
<g><path style="opacity:1" fill="#4a4855" d="M 550.5,86.5 C 498.762,86.1715 447.095,86.5048 395.5,87.5C 421.158,86.1669 447.158,85.5002 473.5,85.5C 499.905,85.4956 525.571,85.8289 550.5,86.5 Z"/></g>
<g><path style="opacity:1" fill="#0d0b1c" d="M 550.5,86.5 C 550.267,88.0618 549.6,89.3951 548.5,90.5C 497.167,90.5 445.833,90.5 394.5,90.5C 394.263,89.209 394.596,88.209 395.5,87.5C 447.095,86.5048 498.762,86.1715 550.5,86.5 Z"/></g>
<g><path style="opacity:1" fill="#727070" d="M 600.5,87.5 C 607.833,86.1667 615.167,86.1667 622.5,87.5C 622.167,87.5 621.833,87.5 621.5,87.5C 618.167,87.5 614.833,87.5 611.5,87.5C 610.833,87.8333 610.167,88.1667 609.5,88.5C 606.713,87.5233 603.713,87.19 600.5,87.5 Z"/></g>
<g><path style="opacity:1" fill="#343031" d="M 576.5,88.5 C 574.283,89.3686 571.95,89.702 569.5,89.5C 568.596,90.209 568.263,91.209 568.5,92.5C 570.099,92.2322 571.432,92.5655 572.5,93.5C 570.958,94.1635 569.291,94.8302 567.5,95.5C 569.045,96.4519 570.712,96.7852 572.5,96.5C 572.5,97.5 572.5,98.5 572.5,99.5C 569.167,99.5 565.833,99.5 562.5,99.5C 563.675,96.183 564.508,92.8496 565,89.5C 564.028,91.3049 562.861,92.9716 561.5,94.5C 560.548,96.0453 560.215,97.712 560.5,99.5C 559.5,99.5 558.5,99.5 557.5,99.5C 557.5,97.1667 557.5,94.8333 557.5,92.5C 558.5,92.5 559.5,92.5 560.5,92.5C 560.5,91.5 560.5,90.5 560.5,89.5C 557.298,89.5367 555.632,91.2033 555.5,94.5C 556.244,97.9496 554.91,99.6162 551.5,99.5C 551.34,97.8008 551.506,96.1341 552,94.5C 553.09,91.9901 554.257,89.4901 555.5,87C 559.317,85.9766 562.817,86.4766 566,88.5C 567.525,87.2799 569.359,86.6132 571.5,86.5C 573.64,86.5561 575.306,87.2227 576.5,88.5 Z"/></g>
<g><path style="opacity:1" fill="#353132" d="M 587.5,89.5 C 586.655,90.6715 585.989,92.0048 585.5,93.5C 583.708,94.3091 581.708,94.8091 579.5,95C 577.963,96.1096 577.297,97.6096 577.5,99.5C 576.022,99.762 574.689,99.4287 573.5,98.5C 575.095,95.3199 576.095,91.9865 576.5,88.5C 579.831,86.7024 583.498,86.0357 587.5,86.5C 587.5,87.5 587.5,88.5 587.5,89.5 Z"/></g>
<g><path style="opacity:1" fill="#3f3b3c" d="M 597.5,94.5 C 596.069,95.7804 595.402,97.4471 595.5,99.5C 591.774,99.8226 588.107,99.4892 584.5,98.5C 585.95,97.1502 586.617,95.4835 586.5,93.5C 587.345,92.3285 588.011,90.9952 588.5,89.5C 588.5,88.5 588.5,87.5 588.5,86.5C 590.199,86.3398 591.866,86.5065 593.5,87C 591.765,89.6368 590.432,92.4701 589.5,95.5C 591.007,96.7388 592.174,96.4054 593,94.5C 593.658,91.7152 594.491,89.0486 595.5,86.5C 596.978,86.238 598.311,86.5713 599.5,87.5C 597.829,89.5098 597.162,91.8431 597.5,94.5 Z"/></g>
<g><path style="opacity:1" fill="#312d2e" d="M 600.5,87.5 C 603.713,87.19 606.713,87.5233 609.5,88.5C 607.735,89.4614 605.735,89.7947 603.5,89.5C 602.596,90.209 602.263,91.209 602.5,92.5C 604.167,92.5 605.833,92.5 607.5,92.5C 605.889,94.0946 603.889,95.2612 601.5,96C 603.5,96.3333 605.5,96.6667 607.5,97C 604.251,99.61 600.584,100.11 596.5,98.5C 597.246,97.2638 597.579,95.9305 597.5,94.5C 599.065,92.4907 600.065,90.1573 600.5,87.5 Z"/></g>
<g><path style="opacity:1" fill="#2c2829" d="M 611.5,87.5 C 614.833,87.5 618.167,87.5 621.5,87.5C 619.492,89.0826 617.159,90.0826 614.5,90.5C 613.957,90.56 613.624,90.8933 613.5,91.5C 615.045,92.4519 616.712,92.7852 618.5,92.5C 619.043,92.56 619.376,92.8933 619.5,93.5C 618.907,95.3817 618.24,97.2151 617.5,99C 614.518,99.498 611.518,99.6646 608.5,99.5C 608.5,98.5 608.5,97.5 608.5,96.5C 611.073,96.8515 613.406,96.3515 615.5,95C 613.527,94.5045 611.527,94.3379 609.5,94.5C 609.878,92.079 610.545,89.7457 611.5,87.5 Z"/></g>
<g><path style="opacity:1" fill="#353233" d="M 648.5,89.5 C 647.596,90.209 647.263,91.209 647.5,92.5C 649.167,92.5 650.833,92.5 652.5,92.5C 653.376,92.3691 654.043,92.7025 654.5,93.5C 652.287,98.6911 648.287,100.691 642.5,99.5C 642.5,98.5 642.5,97.5 642.5,96.5C 650.965,96.37 651.299,95.37 643.5,93.5C 644.428,92.2322 644.595,90.8989 644,89.5C 642.526,92.7556 641.36,96.089 640.5,99.5C 637.167,99.5 633.833,99.5 630.5,99.5C 630.126,96.0283 631.126,93.0283 633.5,90.5C 631.955,89.5481 630.288,89.2148 628.5,89.5C 627.833,92.8333 627.167,96.1667 626.5,99.5C 624.801,99.6602 623.134,99.4935 621.5,99C 622.833,96 624.167,93 625.5,90C 623.881,89.7645 622.881,88.9311 622.5,87.5C 628.169,86.8369 633.835,86.5036 639.5,86.5C 641.693,86.3262 643.527,86.9929 645,88.5C 646.822,86.9546 648.989,86.288 651.5,86.5C 653.167,86.8333 654.833,87.1667 656.5,87.5C 656.333,87.8333 656.167,88.1667 656,88.5C 653.619,89.435 651.119,89.7683 648.5,89.5 Z"/></g>
<g><path style="opacity:1" fill="#423f40" d="M 664.5,86.5 C 665.833,86.5 667.167,86.5 668.5,86.5C 667.585,92.9844 668.585,93.151 671.5,87C 672.944,86.2195 674.277,86.3861 675.5,87.5C 674.123,89.2895 673.123,91.2895 672.5,93.5C 671.311,94.4287 669.978,94.762 668.5,94.5C 669.101,98.909 667.434,100.242 663.5,98.5C 664.04,97.2519 664.707,96.0852 665.5,95C 664.376,94.7508 663.376,94.2508 662.5,93.5C 663.325,91.1987 663.992,88.8654 664.5,86.5 Z"/></g>
<g><path style="opacity:1" fill="#353132" d="M 695.5,99.5 C 698.264,90.7713 697.597,90.4379 693.5,98.5C 689.03,99.4861 684.363,99.8195 679.5,99.5C 680.213,95.3806 681.547,91.3806 683.5,87.5C 686.758,86.5827 690.091,86.2493 693.5,86.5C 693.5,87.5 693.5,88.5 693.5,89.5C 687.229,87.7973 684.229,90.1306 684.5,96.5C 686.766,96.1412 688.599,96.8078 690,98.5C 692.579,95.012 694.913,91.3454 697,87.5C 698.388,86.4464 699.888,86.2797 701.5,87C 700.536,91.0659 700.203,95.2325 700.5,99.5C 698.833,99.5 697.167,99.5 695.5,99.5 Z"/></g>
<g><path style="opacity:1" fill="#3c3839" d="M 722.5,89.5 C 720.282,91.6514 718.948,94.3181 718.5,97.5C 717.796,99.3442 716.463,99.8442 714.5,99C 715.344,96.3 716.344,93.6333 717.5,91C 717.167,90.5 716.833,90 716.5,89.5C 713.503,92.1621 712.169,95.4954 712.5,99.5C 711.167,99.5 709.833,99.5 708.5,99.5C 708.473,96.7702 709.14,94.2702 710.5,92C 710.167,91.1667 709.833,90.3333 709.5,89.5C 707.599,92.6314 706.265,95.9647 705.5,99.5C 704.167,99.5 702.833,99.5 701.5,99.5C 702.833,95.1667 704.167,90.8333 705.5,86.5C 711.167,86.5 716.833,86.5 722.5,86.5C 722.5,87.5 722.5,88.5 722.5,89.5 Z"/></g>
<g><path style="opacity:1" fill="#302c2d" d="M 726.5,91.5 C 724.759,93.3949 723.759,95.7282 723.5,98.5C 722.167,99.8333 720.833,99.8333 719.5,98.5C 721.868,96.0443 722.868,93.0443 722.5,89.5C 726.371,85.1923 727.704,85.859 726.5,91.5 Z"/></g>
<g><path style="opacity:1" fill="#2e2a2b" d="M 738.5,90.5 C 737.055,92.5707 736.055,94.904 735.5,97.5C 732.663,99.4023 729.329,100.069 725.5,99.5C 725.993,97.1944 726.326,94.861 726.5,92.5C 728.587,87.3145 732.587,85.3145 738.5,86.5C 738.5,87.8333 738.5,89.1667 738.5,90.5 Z"/></g>
<g><path style="opacity:1" fill="#3a3637" d="M 750.5,91.5 C 748.018,93.5027 747.018,96.1694 747.5,99.5C 746.167,99.5 744.833,99.5 743.5,99.5C 743.473,96.7702 744.14,94.2702 745.5,92C 745.167,91.1667 744.833,90.3333 744.5,89.5C 742.599,92.6314 741.265,95.9647 740.5,99.5C 738.901,99.7678 737.568,99.4345 736.5,98.5C 737.945,96.4293 738.945,94.096 739.5,91.5C 740.038,89.8828 740.371,88.2161 740.5,86.5C 743.833,86.5 747.167,86.5 750.5,86.5C 750.5,88.1667 750.5,89.8333 750.5,91.5 Z"/></g>
<g><path style="opacity:1" fill="#312d2e" d="M 762.5,86.5 C 760.614,89.0994 757.948,90.0994 754.5,89.5C 754.5,90.5 754.5,91.5 754.5,92.5C 756.199,92.3398 757.866,92.5065 759.5,93C 757.299,94.0432 754.966,94.8765 752.5,95.5C 754.631,96.1687 756.631,96.8354 758.5,97.5C 758.389,98.1174 758.056,98.6174 757.5,99C 754.518,99.498 751.518,99.6646 748.5,99.5C 749.167,96.8333 749.833,94.1667 750.5,91.5C 751.931,90.2196 752.598,88.5529 752.5,86.5C 755.833,86.5 759.167,86.5 762.5,86.5 Z"/></g>
<g><path style="opacity:1" fill="#2f2b2c" d="M 766.5,89.5 C 765.596,90.209 765.263,91.209 765.5,92.5C 767.167,92.5 768.833,92.5 770.5,92.5C 771.819,94.6055 771.486,96.6055 769.5,98.5C 768,98.8333 766.5,99.1667 765,99.5C 763.014,99.4313 761.514,98.7647 760.5,97.5C 762.834,96.8763 765.167,96.043 767.5,95C 765.527,94.5045 763.527,94.3379 761.5,94.5C 761.4,91.8915 762.067,89.5582 763.5,87.5C 766.728,86.5863 770.061,86.2529 773.5,86.5C 773.5,87.5 773.5,88.5 773.5,89.5C 771.167,89.5 768.833,89.5 766.5,89.5 Z"/></g>
<g><path style="opacity:1" fill="#f4e041" d="M 56.5,88.5 C 57.5,88.5 58.5,88.5 59.5,88.5C 59.5,93.5 59.5,98.5 59.5,103.5C 39.5768,111.03 19.5768,118.363 -0.5,125.5C -0.5,119.167 -0.5,112.833 -0.5,106.5C 18.3782,100.096 37.3782,94.0961 56.5,88.5 Z"/></g>
<g><path style="opacity:1" fill="#f2f2f2" d="M 636.5,89.5 C 637.873,89.3433 639.207,89.51 640.5,90C 635.856,98.8146 634.523,98.648 636.5,89.5 Z"/></g>
<g><path style="opacity:1" fill="#f5f5f5" d="M 731.5,89.5 C 732.5,89.5 733.5,89.5 734.5,89.5C 734.547,92.573 733.381,94.9063 731,96.5C 730.5,96.1667 730,95.8333 729.5,95.5C 730.747,93.677 731.414,91.677 731.5,89.5 Z"/></g>
<g><path style="opacity:1" fill="#f3f3f3" d="M 762.5,86.5 C 763.167,86.5 763.5,86.8333 763.5,87.5C 762.067,89.5582 761.4,91.8915 761.5,94.5C 763.527,94.3379 765.527,94.5045 767.5,95C 765.167,96.043 762.834,96.8763 760.5,97.5C 759.833,97.5 759.167,97.5 758.5,97.5C 756.631,96.8354 754.631,96.1687 752.5,95.5C 754.966,94.8765 757.299,94.0432 759.5,93C 757.866,92.5065 756.199,92.3398 754.5,92.5C 754.5,91.5 754.5,90.5 754.5,89.5C 757.948,90.0994 760.614,89.0994 762.5,86.5 Z"/></g>
<g><path style="opacity:1" fill="#dddcdd" d="M 587.5,89.5 C 587.833,89.5 588.167,89.5 588.5,89.5C 588.011,90.9952 587.345,92.3285 586.5,93.5C 586.167,93.5 585.833,93.5 585.5,93.5C 585.989,92.0048 586.655,90.6715 587.5,89.5 Z"/></g>
<g><path style="opacity:1" fill="#f0e83d" d="M 394.5,90.5 C 445.833,90.5 497.167,90.5 548.5,90.5C 547.728,94.9853 546.061,98.9853 543.5,102.5C 492.331,102.832 441.331,102.499 390.5,101.5C 391.076,97.512 392.409,93.8454 394.5,90.5 Z"/></g>
<g><path style="opacity:1" fill="#c5c4c4" d="M 569.5,89.5 C 570.335,90.9432 571.668,91.9432 573.5,92.5C 573.376,93.1067 573.043,93.44 572.5,93.5C 571.432,92.5655 570.099,92.2322 568.5,92.5C 568.263,91.209 568.596,90.209 569.5,89.5 Z"/></g>
<g><path style="opacity:1" fill="#cecdcd" d="M 579.5,89.5 C 580.833,89.5 582.167,89.5 583.5,89.5C 583.5,90.5 583.5,91.5 583.5,92.5C 582.167,92.5 580.833,92.5 579.5,92.5C 579.5,91.5 579.5,90.5 579.5,89.5 Z"/></g>
<g><path style="opacity:1" fill="#c2c0c0" d="M 603.5,89.5 C 604.448,90.9779 605.781,91.9779 607.5,92.5C 605.833,92.5 604.167,92.5 602.5,92.5C 602.263,91.209 602.596,90.209 603.5,89.5 Z"/></g>
<g><path style="opacity:1" fill="#b2b1b1" d="M 614.5,90.5 C 615.833,91.1667 617.167,91.8333 618.5,92.5C 616.712,92.7852 615.045,92.4519 613.5,91.5C 613.624,90.8933 613.957,90.56 614.5,90.5 Z"/></g>
<g><path style="opacity:1" fill="#c2c1c1" d="M 648.5,89.5 C 649.448,90.9779 650.781,91.9779 652.5,92.5C 650.833,92.5 649.167,92.5 647.5,92.5C 647.263,91.209 647.596,90.209 648.5,89.5 Z"/></g>
<g><path style="opacity:1" fill="#c2c1c1" d="M 766.5,89.5 C 767.448,90.9779 768.781,91.9779 770.5,92.5C 768.833,92.5 767.167,92.5 765.5,92.5C 765.263,91.209 765.596,90.209 766.5,89.5 Z"/></g>
<g><path style="opacity:1" fill="#dcdcdc" d="M 722.5,89.5 C 722.868,93.0443 721.868,96.0443 719.5,98.5C 719.5,97.8333 719.167,97.5 718.5,97.5C 718.948,94.3181 720.282,91.6514 722.5,89.5 Z"/></g>
<g><path style="opacity:1" fill="#e1e0e1" d="M 726.5,91.5 C 726.5,91.8333 726.5,92.1667 726.5,92.5C 726.326,94.861 725.993,97.1944 725.5,99.5C 724.833,99.1667 724.167,98.8333 723.5,98.5C 723.759,95.7282 724.759,93.3949 726.5,91.5 Z"/></g>
<g><path style="opacity:1" fill="#d0cfcf" d="M 738.5,90.5 C 738.5,91.1667 738.833,91.5 739.5,91.5C 738.945,94.096 737.945,96.4293 736.5,98.5C 736.5,97.8333 736.167,97.5 735.5,97.5C 736.055,94.904 737.055,92.5707 738.5,90.5 Z"/></g>
<g><path style="opacity:1" fill="#b1afaf" d="M 557.5,99.5 C 556.833,97.8333 556.167,96.1667 555.5,94.5C 555.632,91.2033 557.298,89.5367 560.5,89.5C 560.5,90.5 560.5,91.5 560.5,92.5C 559.5,92.5 558.5,92.5 557.5,92.5C 557.5,94.8333 557.5,97.1667 557.5,99.5 Z"/></g>
<g><path style="opacity:1" fill="#c3c2c2" d="M 695.5,99.5 C 694.833,99.1667 694.167,98.8333 693.5,98.5C 697.597,90.4379 698.264,90.7713 695.5,99.5 Z"/></g>
<g><path style="opacity:1" fill="#f8f49d" d="M 390.5,101.5 C 441.331,102.499 492.331,102.832 543.5,102.5C 492.332,103.831 440.998,103.831 389.5,102.5C 389.624,101.893 389.957,101.56 390.5,101.5 Z"/></g>
</svg>
