<?xml version="1.0" encoding="UTF-8"?>
<!DOCTYPE svg PUBLIC "-//W3C//DTD SVG 1.1//EN" "http://www.w3.org/Graphics/SVG/1.1/DTD/svg11.dtd">
<svg xmlns="http://www.w3.org/2000/svg" version="1.1" width="1064px" height="178px" style="shape-rendering:geometricPrecision; text-rendering:geometricPrecision; image-rendering:optimizeQuality; fill-rule:evenodd; clip-rule:evenodd" xmlns:xlink="http://www.w3.org/1999/xlink">
<g><path style="opacity:1" fill="#221e1f" d="M -0.5,-0.5 C 145.5,-0.5 291.5,-0.5 437.5,-0.5C 417.167,6.83333 396.833,14.1667 376.5,21.5C 346.045,30.7385 316.045,41.0718 286.5,52.5C 273.233,56.2556 260.233,60.5889 247.5,65.5C 223.868,72.9319 200.535,80.9319 177.5,89.5C 156.821,96.2264 136.154,103.06 115.5,110C 112.931,110.898 110.598,112.065 108.5,113.5C 72.151,125.505 35.8176,137.505 -0.5,149.5C -0.5,99.5 -0.5,49.5 -0.5,-0.5 Z"/></g>
<g><path style="opacity:1" fill="#f19f2e" d="M 437.5,-0.5 C 449.833,-0.5 462.167,-0.5 474.5,-0.5C 445.14,11.0677 415.473,22.0677 385.5,32.5C 383.725,28.6136 382.892,24.2803 383,19.5C 382.667,20.1667 382.333,20.8333 382,21.5C 380.216,21.7357 378.382,21.7357 376.5,21.5C 396.833,14.1667 417.167,6.83333 437.5,-0.5 Z"/></g>
<g><path style="opacity:1" fill="#f2b030" d="M 385.5,32.5 C 351.373,45.5445 317.039,58.2112 282.5,70.5C 282.334,65.4889 282.501,60.4889 283,55.5C 283.499,59.4862 283.666,63.4862 283.5,67.5C 285.527,67.6621 287.527,67.4955 289.5,67C 289.177,61.8101 288.177,56.9768 286.5,52.5C 316.045,41.0718 346.045,30.7385 376.5,21.5C 378.382,21.7357 380.216,21.7357 382,21.5C 382.333,20.8333 382.667,20.1667 383,19.5C 382.892,24.2803 383.725,28.6136 385.5,32.5 Z"/></g>
<g><path style="opacity:1" fill="#f3b932" d="M 286.5,52.5 C 288.177,56.9768 289.177,61.8101 289.5,67C 287.527,67.4955 285.527,67.6621 283.5,67.5C 283.666,63.4862 283.499,59.4862 283,55.5C 282.501,60.4889 282.334,65.4889 282.5,70.5C 268.314,76.2286 253.981,81.5619 239.5,86.5C 239.414,85.5041 239.748,84.6708 240.5,84C 243.473,82.8707 246.473,82.0374 249.5,81.5C 250.113,75.7291 249.446,70.3958 247.5,65.5C 260.233,60.5889 273.233,56.2556 286.5,52.5 Z"/></g>
<g><path style="opacity:1" fill="#adacac" d="M 546.5,63.5 C 556.653,62.5058 566.986,62.1724 577.5,62.5C 577.737,63.791 577.404,64.791 576.5,65.5C 566.889,63.5257 556.889,62.859 546.5,63.5 Z"/></g>
<g><path style="opacity:1" fill="#afaeae" d="M 581.5,63.5 C 585.298,62.5166 589.298,62.1832 593.5,62.5C 593.768,64.099 593.434,65.4324 592.5,66.5C 592.5,65.5 592.5,64.5 592.5,63.5C 588.833,63.5 585.167,63.5 581.5,63.5 Z"/></g>
<g><path style="opacity:1" fill="#aeadad" d="M 651.5,63.5 C 641.085,63.1917 630.751,63.525 620.5,64.5C 625.288,63.1721 630.454,62.5054 636,62.5C 641.344,62.5006 646.511,62.834 651.5,63.5 Z"/></g>
<g><path style="opacity:1" fill="#acabab" d="M 657.5,63.5 C 668.674,62.176 680.007,62.176 691.5,63.5C 691.376,64.1067 691.043,64.44 690.5,64.5C 679.679,63.5054 668.679,63.1721 657.5,63.5 Z"/></g>
<g><path style="opacity:1" fill="#aeadad" d="M 756.5,63.5 C 767.654,62.5052 778.988,62.1719 790.5,62.5C 790.737,63.791 790.404,64.791 789.5,65.5C 778.884,63.523 767.884,62.8564 756.5,63.5 Z"/></g>
<g><path style="opacity:1" fill="#afaeae" d="M 823.5,63.5 C 813.085,63.1917 802.751,63.525 792.5,64.5C 797.288,63.1721 802.454,62.5054 808,62.5C 813.344,62.5006 818.511,62.834 823.5,63.5 Z"/></g>
<g><path style="opacity:1" fill="#aaa9a9" d="M 831.5,63.5 C 835.298,62.5166 839.298,62.1832 843.5,62.5C 843.198,65.3725 842.531,68.0392 841.5,70.5C 841.244,68.2075 841.577,66.0408 842.5,64C 838.848,63.5014 835.182,63.3347 831.5,63.5 Z"/></g>
<g><path style="opacity:1" fill="#a4a3a3" d="M 864.5,65.5 C 863.306,64.2227 861.64,63.5561 859.5,63.5C 857.215,63.6759 855.215,64.3426 853.5,65.5C 853.5,64.5 853.5,63.5 853.5,62.5C 857.5,62.5 861.5,62.5 865.5,62.5C 865.737,63.791 865.404,64.791 864.5,65.5 Z"/></g>
<g><path style="opacity:1" fill="#b0afaf" d="M 906.5,63.5 C 910.298,62.5166 914.298,62.1832 918.5,62.5C 918.737,63.791 918.404,64.791 917.5,65.5C 914.316,63.5864 910.649,62.9197 906.5,63.5 Z"/></g>
<g><path style="opacity:1" fill="#b0aeaf" d="M 928.5,63.5 C 932.351,62.1905 936.351,62.1905 940.5,63.5C 940.376,64.1067 940.043,64.44 939.5,64.5C 936.038,63.5184 932.371,63.185 928.5,63.5 Z"/></g>
<g><path style="opacity:1" fill="#252122" d="M 546.5,63.5 C 556.889,62.859 566.889,63.5257 576.5,65.5C 576.777,68.4475 576.444,71.2809 575.5,74C 568.167,74.3333 560.833,74.6667 553.5,75C 552.748,75.6708 552.414,76.5041 552.5,77.5C 551.566,78.5676 551.232,79.901 551.5,81.5C 557.5,81.5 563.5,81.5 569.5,81.5C 571.845,82.5123 573.178,84.3456 573.5,87C 572.602,92.8885 571.435,98.7218 570,104.5C 568.961,105.71 567.794,106.71 566.5,107.5C 557.749,107.803 549.082,107.47 540.5,106.5C 539.101,103.301 538.101,99.9679 537.5,96.5C 544.841,96.6663 552.174,96.4997 559.5,96C 560.337,94.9887 560.67,93.8221 560.5,92.5C 561.404,91.791 561.737,90.791 561.5,89.5C 555.167,89.5 548.833,89.5 542.5,89.5C 540.265,88.7142 539.265,87.0476 539.5,84.5C 540.04,77.5788 541.54,70.9121 544,64.5C 544.671,63.7476 545.504,63.4142 546.5,63.5 Z"/></g>
<g><path style="opacity:1" fill="#2d292a" d="M 615.5,64.5 C 613.625,69.2062 612.625,74.2062 612.5,79.5C 611.985,87.256 610.819,94.9226 609,102.5C 608.654,104.848 607.487,106.681 605.5,108C 596.167,108.667 586.833,108.667 577.5,108C 575.643,106.818 574.643,105.151 574.5,103C 576.675,89.7843 579.008,76.6176 581.5,63.5C 585.167,63.5 588.833,63.5 592.5,63.5C 592.5,64.5 592.5,65.5 592.5,66.5C 591.665,76.5024 589.999,86.3358 587.5,96C 591.152,96.4986 594.818,96.6653 598.5,96.5C 599.913,85.4469 601.746,74.4469 604,63.5C 607.744,62.374 611.577,62.2073 615.5,63C 616.738,63.69 616.738,64.19 615.5,64.5 Z"/></g>
<g><path style="opacity:1" fill="#282425" d="M 651.5,63.5 C 653.478,64.3171 654.478,65.8171 654.5,68C 653.148,74.1298 651.981,80.2965 651,86.5C 649.786,88.0488 648.286,89.2155 646.5,90C 639.987,90.1721 633.653,90.6721 627.5,91.5C 626.097,94.9085 625.43,98.5752 625.5,102.5C 625.784,104.415 625.451,106.081 624.5,107.5C 621.167,107.5 617.833,107.5 614.5,107.5C 614.5,105.167 614.5,102.833 614.5,100.5C 616.068,88.4248 618.068,76.4248 620.5,64.5C 630.751,63.525 641.085,63.1917 651.5,63.5 Z M 630.5,74.5 C 634.182,74.3347 637.848,74.5014 641.5,75C 640.594,76.6995 640.261,78.5328 640.5,80.5C 636.818,80.6653 633.152,80.4986 629.5,80C 630.406,78.3005 630.739,76.4672 630.5,74.5 Z"/></g>
<g><path style="opacity:1" fill="#272324" d="M 657.5,63.5 C 668.679,63.1721 679.679,63.5054 690.5,64.5C 689.146,68.0317 687.146,71.1984 684.5,74C 678.843,74.4994 673.176,74.6661 667.5,74.5C 666.076,76.5145 665.41,78.8478 665.5,81.5C 671.176,81.3339 676.843,81.5006 682.5,82C 681.577,84.0408 681.244,86.2075 681.5,88.5C 676.265,90.45 670.598,91.1167 664.5,90.5C 664.739,92.4672 664.406,94.3005 663.5,96C 670.856,96.1687 678.189,96.6687 685.5,97.5C 683.637,101.25 681.303,104.583 678.5,107.5C 668.773,108.139 659.44,107.472 650.5,105.5C 652.403,91.4179 654.736,77.4179 657.5,63.5 Z"/></g>
<g><path style="opacity:1" fill="#2b2728" d="M 707.5,100.5 C 707.435,97.5718 706.768,94.9052 705.5,92.5C 704.469,90.0392 703.802,87.3725 703.5,84.5C 703.5,83.5 703.5,82.5 703.5,81.5C 707.167,81.5 710.833,81.5 714.5,81.5C 714.5,80.1667 714.5,78.8333 714.5,77.5C 714.5,76.5 714.5,75.5 714.5,74.5C 711.167,74.5 707.833,74.5 704.5,74.5C 704.737,75.791 704.404,76.791 703.5,77.5C 701.918,80.8756 701.251,84.5422 701.5,88.5C 701.283,92.7051 700.617,96.7051 699.5,100.5C 698.717,102.343 698.05,104.343 697.5,106.5C 694.232,107.487 690.898,107.82 687.5,107.5C 687.5,106.5 687.5,105.5 687.5,104.5C 689.19,90.7157 691.524,77.049 694.5,63.5C 704.483,62.3344 714.483,62.1678 724.5,63C 727.428,66.2572 728.262,70.0906 727,74.5C 726.254,78.8964 725.254,83.2297 724,87.5C 722.005,89.747 719.505,90.747 716.5,90.5C 718.45,96.3537 719.784,102.354 720.5,108.5C 716.5,108.5 712.5,108.5 708.5,108.5C 708.425,105.794 708.092,103.127 707.5,100.5 Z M 714.5,77.5 C 713.596,78.209 713.263,79.209 713.5,80.5C 710.167,80.5 706.833,80.5 703.5,80.5C 703.5,79.5 703.5,78.5 703.5,77.5C 704.404,76.791 704.737,75.791 704.5,74.5C 707.833,74.5 711.167,74.5 714.5,74.5C 714.5,75.5 714.5,76.5 714.5,77.5 Z"/></g>
<g><path style="opacity:1" fill="#262223" d="M 756.5,63.5 C 767.884,62.8564 778.884,63.523 789.5,65.5C 789.296,68.5176 788.963,71.5176 788.5,74.5C 784.818,74.3347 781.152,74.5014 777.5,75C 776.877,77.6073 776.21,80.1073 775.5,82.5C 774.097,85.9085 773.43,89.5752 773.5,93.5C 773.26,97.6061 772.593,101.606 771.5,105.5C 768.169,107.298 764.502,107.964 760.5,107.5C 760.5,106.5 760.5,105.5 760.5,104.5C 761.335,94.4976 763.001,84.6642 765.5,75C 761.5,74.6667 757.5,74.3333 753.5,74C 754.448,70.39 755.448,66.89 756.5,63.5 Z"/></g>
<g><path style="opacity:1" fill="#2a2627" d="M 823.5,63.5 C 824.872,64.8881 825.872,66.5548 826.5,68.5C 825.102,74.4525 823.935,80.4525 823,86.5C 820.806,89.1806 817.973,90.6806 814.5,91C 816.101,96.4907 817.768,101.991 819.5,107.5C 815.285,108.798 811.118,108.798 807,107.5C 805.383,101.914 804.216,96.2472 803.5,90.5C 803.461,87.6786 802.795,85.0119 801.5,82.5C 800.702,82.9569 800.369,83.6236 800.5,84.5C 800.802,87.0593 800.468,89.3926 799.5,91.5C 798.097,94.9085 797.43,98.5752 797.5,102.5C 797.784,104.415 797.451,106.081 796.5,107.5C 793.167,107.5 789.833,107.5 786.5,107.5C 786.5,105.167 786.5,102.833 786.5,100.5C 788.068,88.4248 790.068,76.4248 792.5,64.5C 802.751,63.525 813.085,63.1917 823.5,63.5 Z M 802.5,74.5 C 806.182,74.3347 809.848,74.5014 813.5,75C 812.594,76.6995 812.261,78.5328 812.5,80.5C 808.818,80.6653 805.152,80.4986 801.5,80C 802.406,78.3005 802.739,76.4672 802.5,74.5 Z"/></g>
<g><path style="opacity:1" fill="#2c2829" d="M 831.5,63.5 C 835.182,63.3347 838.848,63.5014 842.5,64C 841.577,66.0408 841.244,68.2075 841.5,70.5C 840.599,79.2377 839.266,87.9044 837.5,96.5C 841.106,96.7892 844.606,96.4558 848,95.5C 849.412,85.2838 851.245,75.2838 853.5,65.5C 855.215,64.3426 857.215,63.6759 859.5,63.5C 861.64,63.5561 863.306,64.2227 864.5,65.5C 863.251,77.5784 861.418,89.5784 859,101.5C 858.594,104.494 857.094,106.661 854.5,108C 845.167,108.667 835.833,108.667 826.5,108C 824.477,104.817 823.977,101.317 825,97.5C 827.041,86.0031 829.207,74.6698 831.5,63.5 Z"/></g>
<g><path style="opacity:1" fill="#2e2a2b" d="M 872.5,62.5 C 882.839,62.3335 893.172,62.5002 903.5,63C 903.833,63.3333 904.167,63.6667 904.5,64C 903.261,67.3642 902.594,70.8642 902.5,74.5C 894.833,74.5 887.167,74.5 879.5,74.5C 878.611,81.7773 877.277,88.944 875.5,96C 883.167,96.3333 890.833,96.6667 898.5,97C 897.418,100.405 896.584,103.905 896,107.5C 885.91,108.652 875.744,108.819 865.5,108C 864.667,107.167 863.833,106.333 863,105.5C 864.125,92.7467 866.125,80.08 869,67.5C 869.997,65.6769 871.164,64.0103 872.5,62.5 Z"/></g>
<g><path style="opacity:1" fill="#2c2829" d="M 906.5,63.5 C 910.649,62.9197 914.316,63.5864 917.5,65.5C 917.425,68.2062 917.092,70.8728 916.5,73.5C 915.035,75.686 914.702,78.0193 915.5,80.5C 916.425,79.6431 917.092,78.6431 917.5,77.5C 921.167,72.8333 924.833,68.1667 928.5,63.5C 932.371,63.185 936.038,63.5184 939.5,64.5C 934.933,69.9567 930.6,75.6234 926.5,81.5C 928.915,90.4108 930.915,99.4108 932.5,108.5C 928.5,108.5 924.5,108.5 920.5,108.5C 918.831,100.156 916.998,91.8224 915,83.5C 913.449,91.5364 911.949,99.5364 910.5,107.5C 906.833,107.5 903.167,107.5 899.5,107.5C 899.5,106.5 899.5,105.5 899.5,104.5C 901.197,90.6867 903.53,77.02 906.5,63.5 Z"/></g>
<g><path style="opacity:1" fill="#2d292a" d="M 951.5,77.5 C 950.566,78.5676 950.232,79.901 950.5,81.5C 956.5,81.5 962.5,81.5 968.5,81.5C 971.436,82.5153 972.769,84.682 972.5,88C 971.829,92.8614 970.995,97.6947 970,102.5C 969.226,104.939 967.726,106.773 965.5,108C 957.167,108.667 948.833,108.667 940.5,108C 938.677,104.701 937.344,101.201 936.5,97.5C 943.811,96.6687 951.144,96.1687 958.5,96C 959.167,94.3333 959.833,92.6667 960.5,91C 954.167,90.6667 947.833,90.3333 941.5,90C 940.667,89.1667 939.833,88.3333 939,87.5C 939.433,80.4673 940.433,73.4673 942,66.5C 942.833,65 944,63.8333 945.5,63C 955.828,62.5002 966.161,62.3335 976.5,62.5C 976.167,66.5 975.833,70.5 975.5,74.5C 967.833,74.5 960.167,74.5 952.5,74.5C 952.737,75.791 952.404,76.791 951.5,77.5 Z"/></g>
<g><path style="opacity:1" fill="#817e7f" d="M 615.5,64.5 C 615.118,69.7442 614.118,74.7442 612.5,79.5C 612.625,74.2062 613.625,69.2062 615.5,64.5 Z"/></g>
<g><path style="opacity:1" fill="#f4c232" d="M 247.5,65.5 C 249.446,70.3958 250.113,75.7291 249.5,81.5C 246.473,82.0374 243.473,82.8707 240.5,84C 239.748,84.6708 239.414,85.5041 239.5,86.5C 218.003,94.8888 196.336,102.889 174.5,110.5C 176.527,108.153 179.194,106.819 182.5,106.5C 182.829,100.794 182.495,95.1278 181.5,89.5C 180.274,90.3629 178.94,90.3629 177.5,89.5C 200.535,80.9319 223.868,72.9319 247.5,65.5 Z"/></g>
<g><path style="opacity:1" fill="#939192" d="M 916.5,73.5 C 916.232,75.099 916.566,76.4324 917.5,77.5C 917.092,78.6431 916.425,79.6431 915.5,80.5C 914.702,78.0193 915.035,75.686 916.5,73.5 Z"/></g>
<g><path style="opacity:1" fill="#9f9e9e" d="M 552.5,77.5 C 552.5,78.5 552.5,79.5 552.5,80.5C 558.358,80.1778 564.025,80.5111 569.5,81.5C 563.5,81.5 557.5,81.5 551.5,81.5C 551.232,79.901 551.566,78.5676 552.5,77.5 Z"/></g>
<g><path style="opacity:1" fill="#979595" d="M 667.5,74.5 C 667.739,76.4672 667.406,78.3005 666.5,80C 672.157,80.4994 677.824,80.6661 683.5,80.5C 683.198,83.3725 682.531,86.0392 681.5,88.5C 681.244,86.2075 681.577,84.0408 682.5,82C 676.843,81.5006 671.176,81.3339 665.5,81.5C 665.41,78.8478 666.076,76.5145 667.5,74.5 Z"/></g>
<g><path style="opacity:1" fill="#999798" d="M 951.5,77.5 C 951.5,78.5 951.5,79.5 951.5,80.5C 957.358,80.1778 963.025,80.5111 968.5,81.5C 962.5,81.5 956.5,81.5 950.5,81.5C 950.232,79.901 950.566,78.5676 951.5,77.5 Z"/></g>
<g><path style="opacity:1" fill="#9a9899" d="M 803.5,90.5 C 802.5,88.5 801.5,86.5 800.5,84.5C 800.369,83.6236 800.702,82.9569 801.5,82.5C 802.795,85.0119 803.461,87.6786 803.5,90.5 Z"/></g>
<g><path style="opacity:1" fill="#8c8a8b" d="M 703.5,77.5 C 703.5,78.5 703.5,79.5 703.5,80.5C 706.833,80.5 710.167,80.5 713.5,80.5C 713.263,79.209 713.596,78.209 714.5,77.5C 714.5,78.8333 714.5,80.1667 714.5,81.5C 710.833,81.5 707.167,81.5 703.5,81.5C 703.5,82.5 703.5,83.5 703.5,84.5C 702.833,85.8333 702.167,87.1667 701.5,88.5C 701.251,84.5422 701.918,80.8756 703.5,77.5 Z"/></g>
<g><path style="opacity:1" fill="#7f7d7e" d="M 542.5,89.5 C 548.833,89.5 555.167,89.5 561.5,89.5C 561.737,90.791 561.404,91.791 560.5,92.5C 554.735,90.8526 548.735,89.8526 542.5,89.5 Z"/></g>
<g><path style="opacity:1" fill="#9a9898" d="M 775.5,82.5 C 775.57,86.4248 774.903,90.0915 773.5,93.5C 773.43,89.5752 774.097,85.9085 775.5,82.5 Z"/></g>
<g><path style="opacity:1" fill="#a8a6a6" d="M 705.5,92.5 C 706.768,94.9052 707.435,97.5718 707.5,100.5C 705.96,98.1617 705.294,95.4951 705.5,92.5 Z"/></g>
<g><path style="opacity:1" fill="#979596" d="M 627.5,91.5 C 627.57,95.4248 626.903,99.0915 625.5,102.5C 625.43,98.5752 626.097,94.9085 627.5,91.5 Z"/></g>
<g><path style="opacity:1" fill="#979596" d="M 799.5,91.5 C 799.57,95.4248 798.903,99.0915 797.5,102.5C 797.43,98.5752 798.097,94.9085 799.5,91.5 Z"/></g>
<g><path style="opacity:1" fill="#f5cf34" d="M 177.5,89.5 C 178.94,90.3629 180.274,90.3629 181.5,89.5C 182.495,95.1278 182.829,100.794 182.5,106.5C 179.194,106.819 176.527,108.153 174.5,110.5C 152.249,119.028 129.916,127.362 107.5,135.5C 108.15,128.332 108.817,121.166 109.5,114C 109.272,113.601 108.938,113.435 108.5,113.5C 110.598,112.065 112.931,110.898 115.5,110C 136.154,103.06 156.821,96.2264 177.5,89.5 Z"/></g>
<g><path style="opacity:1" fill="#8d8b8b" d="M 540.5,106.5 C 549.082,107.47 557.749,107.803 566.5,107.5C 562.347,108.166 558.013,108.499 553.5,108.5C 548.778,108.492 544.445,107.825 540.5,106.5 Z"/></g>
<g><path style="opacity:1" fill="#807e7e" d="M 614.5,100.5 C 614.5,102.833 614.5,105.167 614.5,107.5C 617.833,107.5 621.167,107.5 624.5,107.5C 621.024,108.643 617.358,108.81 613.5,108C 613.167,107.667 612.833,107.333 612.5,107C 613.117,104.723 613.784,102.556 614.5,100.5 Z"/></g>
<g><path style="opacity:1" fill="#898888" d="M 650.5,105.5 C 659.44,107.472 668.773,108.139 678.5,107.5C 669.014,108.494 659.348,108.827 649.5,108.5C 649.263,107.209 649.596,106.209 650.5,105.5 Z"/></g>
<g><path style="opacity:1" fill="#8f8d8e" d="M 699.5,100.5 C 699.708,102.92 699.374,105.253 698.5,107.5C 694.555,108.491 690.555,108.824 686.5,108.5C 686.232,106.901 686.566,105.568 687.5,104.5C 687.5,105.5 687.5,106.5 687.5,107.5C 690.898,107.82 694.232,107.487 697.5,106.5C 698.05,104.343 698.717,102.343 699.5,100.5 Z"/></g>
<g><path style="opacity:1" fill="#8b8989" d="M 760.5,104.5 C 760.5,105.5 760.5,106.5 760.5,107.5C 764.502,107.964 768.169,107.298 771.5,105.5C 771.5,106.5 771.5,107.5 771.5,108.5C 767.5,108.5 763.5,108.5 759.5,108.5C 759.232,106.901 759.566,105.568 760.5,104.5 Z"/></g>
<g><path style="opacity:1" fill="#807e7e" d="M 786.5,100.5 C 786.5,102.833 786.5,105.167 786.5,107.5C 789.833,107.5 793.167,107.5 796.5,107.5C 793.024,108.643 789.358,108.81 785.5,108C 785.167,107.667 784.833,107.333 784.5,107C 785.117,104.723 785.784,102.556 786.5,100.5 Z"/></g>
<g><path style="opacity:1" fill="#918f8f" d="M 899.5,104.5 C 899.5,105.5 899.5,106.5 899.5,107.5C 903.167,107.5 906.833,107.5 910.5,107.5C 906.702,108.483 902.702,108.817 898.5,108.5C 898.232,106.901 898.566,105.568 899.5,104.5 Z"/></g>
<g><path style="opacity:1" fill="#5a5864" d="M 712.5,116.5 C 683.674,115.167 654.508,114.5 625,114.5C 595.429,114.504 565.929,114.837 536.5,115.5C 565.826,114.167 595.492,113.5 625.5,113.5C 655.167,113.667 684.833,113.833 714.5,114C 713.934,114.995 713.267,115.828 712.5,116.5 Z"/></g>
<g><path style="opacity:1" fill="#0a0619" d="M 712.5,116.5 C 712.672,117.492 712.338,118.158 711.5,118.5C 652.824,119.163 594.49,118.496 536.5,116.5C 536.5,116.167 536.5,115.833 536.5,115.5C 565.929,114.837 595.429,114.504 625,114.5C 654.508,114.5 683.674,115.167 712.5,116.5 Z"/></g>
<g><path style="opacity:1" fill="#3c393a" d="M 820.5,123.5 C 820.366,121.708 820.699,120.042 821.5,118.5C 821.33,117.178 821.663,116.011 822.5,115C 826.541,114.173 830.541,114.34 834.5,115.5C 834.167,116.167 833.833,116.833 833.5,117.5C 830.36,118.091 827.36,118.924 824.5,120C 826.81,120.497 829.143,120.663 831.5,120.5C 831.453,128.717 827.453,131.883 819.5,130C 818.62,128.644 818.286,127.144 818.5,125.5C 821.187,125.664 823.854,125.497 826.5,125C 824.292,124.809 822.292,124.309 820.5,123.5 Z"/></g>
<g><path style="opacity:1" fill="#3a3637" d="M 872.5,128.5 C 869.159,130.461 865.492,130.961 861.5,130C 860.715,127.557 860.881,125.057 862,122.5C 863.312,120.045 864.478,117.545 865.5,115C 869.5,114.333 873.5,114.333 877.5,115C 876.663,116.011 876.33,117.178 876.5,118.5C 873.552,118.223 870.719,118.556 868,119.5C 867.55,121.519 866.717,123.352 865.5,125C 867.81,125.497 870.143,125.663 872.5,125.5C 872.5,126.5 872.5,127.5 872.5,128.5 Z"/></g>
<g><path style="opacity:1" fill="#373334" d="M 909.5,117.5 C 907.528,120.084 906.528,123.084 906.5,126.5C 905.911,129.734 903.911,131.067 900.5,130.5C 901.137,126.422 902.47,122.589 904.5,119C 903.216,118.316 902.049,118.483 901,119.5C 900,122.5 899,125.5 898,128.5C 896.312,130.848 894.478,131.015 892.5,129C 894.26,125.649 895.594,122.149 896.5,118.5C 895.325,118.281 894.325,118.614 893.5,119.5C 892.332,122.839 891.166,126.172 890,129.5C 888.644,130.38 887.144,130.714 885.5,130.5C 886.866,125.427 888.532,120.427 890.5,115.5C 896.472,114.336 902.472,114.17 908.5,115C 909.252,115.671 909.586,116.504 909.5,117.5 Z"/></g>
<g><path style="opacity:1" fill="#3b3738" d="M 953.5,129.5 C 953.5,128.5 953.5,127.5 953.5,126.5C 956.059,126.802 958.393,126.468 960.5,125.5C 961.043,125.44 961.376,125.107 961.5,124.5C 959.604,123.534 957.604,123.201 955.5,123.5C 955.5,122.167 955.5,120.833 955.5,119.5C 955.649,118.448 955.483,117.448 955,116.5C 952.757,117.971 950.257,118.971 947.5,119.5C 949.167,120.167 950.833,120.833 952.5,121.5C 950.902,123.881 948.568,125.048 945.5,125C 951.427,124.825 952.427,126.491 948.5,130C 945.518,130.498 942.518,130.665 939.5,130.5C 940.264,125.041 941.931,119.875 944.5,115C 952.493,114.5 960.493,114.334 968.5,114.5C 968.67,115.822 968.337,116.989 967.5,118C 964.774,118.182 962.107,118.682 959.5,119.5C 961.966,120.123 964.299,120.957 966.5,122C 965.144,124.398 963.977,126.898 963,129.5C 959.731,130.818 956.565,130.818 953.5,129.5 Z"/></g>
<g><path style="opacity:1" fill="#2d2a2a" d="M 729.5,115.5 C 729.233,117.965 728.566,120.299 727.5,122.5C 725.833,122.5 724.167,122.5 722.5,122.5C 722.662,124.527 722.495,126.527 722,128.5C 721.503,126.19 721.337,123.857 721.5,121.5C 723.359,121.539 724.692,120.706 725.5,119C 721.691,117.967 719.691,119.467 719.5,123.5C 720.016,128.186 718.016,130.519 713.5,130.5C 714.866,125.427 716.532,120.427 718.5,115.5C 722.315,114.192 725.981,114.192 729.5,115.5 Z"/></g>
<g><path style="opacity:1" fill="#242021" d="M 755.5,114.5 C 755.259,117.815 754.259,120.815 752.5,123.5C 750.143,123.663 747.81,123.497 745.5,123C 747.842,122.164 749.842,120.83 751.5,119C 749.251,118.137 747.418,118.637 746,120.5C 744.812,119.437 744.312,118.103 744.5,116.5C 747.684,114.586 751.351,113.92 755.5,114.5 Z"/></g>
<g><path style="opacity:1" fill="#353233" d="M 878.5,129.5 C 880.215,127.079 881.048,124.413 881,121.5C 879.295,123.577 878.128,125.91 877.5,128.5C 876.833,128.5 876.5,128.833 876.5,129.5C 875.209,129.737 874.209,129.404 873.5,128.5C 875.554,124.061 877.887,119.728 880.5,115.5C 882.045,114.548 883.712,114.215 885.5,114.5C 885.248,119.519 884.748,124.519 884,129.5C 882.057,130.807 880.223,130.807 878.5,129.5 Z"/></g>
<g><path style="opacity:1" fill="#353233" d="M 927.5,119.5 C 926.205,121.979 925.205,124.646 924.5,127.5C 924.423,128.75 923.756,129.583 922.5,130C 919.5,130.667 916.5,130.667 913.5,130C 912.663,128.989 912.33,127.822 912.5,126.5C 914.391,123.043 916.058,119.376 917.5,115.5C 921.107,114.511 924.774,114.177 928.5,114.5C 928.634,116.292 928.301,117.958 927.5,119.5 Z"/></g>
<g><path style="opacity:1" fill="#d4d3d3" d="M 755.5,114.5 C 756.167,115.167 756.833,115.833 757.5,116.5C 756.122,119.906 754.789,123.24 753.5,126.5C 753.737,125.209 753.404,124.209 752.5,123.5C 754.259,120.815 755.259,117.815 755.5,114.5 Z"/></g>
<g><path style="opacity:1" fill="#2c2825" d="M 536.5,116.5 C 594.49,118.496 652.824,119.163 711.5,118.5C 711.5,118.833 711.5,119.167 711.5,119.5C 652.664,119.832 593.998,119.499 535.5,118.5C 535.328,117.508 535.662,116.842 536.5,116.5 Z"/></g>
<g><path style="opacity:1" fill="#3a3737" d="M 807.5,114.5 C 807.167,115.833 806.833,117.167 806.5,118.5C 805.178,118.33 804.011,118.663 803,119.5C 801.667,122.833 800.333,126.167 799,129.5C 797.365,130.849 795.865,130.682 794.5,129C 795.984,125.731 797.318,122.398 798.5,119C 796.939,118.682 795.772,117.849 795,116.5C 792.46,118.02 789.627,119.02 786.5,119.5C 788.396,120.466 790.396,120.799 792.5,120.5C 792.629,129.396 788.629,132.396 780.5,129.5C 780.5,128.5 780.5,127.5 780.5,126.5C 783.059,126.802 785.393,126.468 787.5,125.5C 785.444,124.784 783.277,124.117 781,123.5C 781.333,121.167 781.667,118.833 782,116.5C 779.287,117.927 776.454,119.094 773.5,120C 775.5,120.333 777.5,120.667 779.5,121C 777.804,123.982 775.137,125.316 771.5,125C 773.9,125.186 776.234,125.686 778.5,126.5C 777.687,127.814 776.687,128.981 775.5,130C 771.967,130.903 768.633,130.57 765.5,129C 767.863,124.41 769.53,119.577 770.5,114.5C 782.837,114.621 795.171,114.621 807.5,114.5 Z"/></g>
<g><path style="opacity:1" fill="#d9d8d8" d="M 820.5,117.5 C 820.5,118.167 820.833,118.5 821.5,118.5C 820.699,120.042 820.366,121.708 820.5,123.5C 819.833,122.833 819.167,122.167 818.5,121.5C 818.229,119.62 818.896,118.287 820.5,117.5 Z"/></g>
<g><path style="opacity:1" fill="#f0f0f0" d="M 919.5,118.5 C 920.978,118.238 922.311,118.571 923.5,119.5C 922.833,121.167 922.167,122.833 921.5,124.5C 920.675,125.386 919.675,125.719 918.5,125.5C 918.674,123.139 919.007,120.806 919.5,118.5 Z"/></g>
<g><path style="opacity:1" fill="#e4e4e4" d="M 729.5,115.5 C 730.338,115.842 730.672,116.508 730.5,117.5C 730.279,120.067 729.612,122.401 728.5,124.5C 728.672,123.508 728.338,122.842 727.5,122.5C 728.566,120.299 729.233,117.965 729.5,115.5 Z"/></g>
<g><path style="opacity:1" fill="#f2ea3c" d="M 535.5,118.5 C 593.998,119.499 652.664,119.832 711.5,119.5C 710.686,123.116 709.352,126.449 707.5,129.5C 705.952,129.821 705.285,130.821 705.5,132.5C 647.5,132.5 589.5,132.5 531.5,132.5C 531.5,131.5 531.5,130.5 531.5,129.5C 532.462,125.605 533.796,121.939 535.5,118.5 Z"/></g>
<g><path style="opacity:1" fill="#322f2f" d="M 743.5,116.5 C 741.149,118.07 738.482,118.903 735.5,119C 735.167,119.333 734.833,119.667 734.5,120C 736.134,120.494 737.801,120.66 739.5,120.5C 739.67,121.822 739.337,122.989 738.5,124C 736.5,124.333 734.5,124.667 732.5,125C 734.9,125.186 737.234,125.686 739.5,126.5C 738.812,127.855 737.812,128.855 736.5,129.5C 733.287,129.81 730.287,129.477 727.5,128.5C 727.433,127.041 727.766,125.708 728.5,124.5C 729.612,122.401 730.279,120.067 730.5,117.5C 731.404,116.791 731.737,115.791 731.5,114.5C 735.971,113.911 739.971,114.577 743.5,116.5 Z"/></g>
<g><path style="opacity:1" fill="#555253" d="M 743.5,116.5 C 743.833,116.5 744.167,116.5 744.5,116.5C 744.312,118.103 744.812,119.437 746,120.5C 747.418,118.637 749.251,118.137 751.5,119C 749.842,120.83 747.842,122.164 745.5,123C 747.81,123.497 750.143,123.663 752.5,123.5C 750.302,124.165 747.969,124.832 745.5,125.5C 745.006,127.026 744.339,128.359 743.5,129.5C 742.209,129.737 741.209,129.404 740.5,128.5C 741.095,124.385 742.095,120.385 743.5,116.5 Z"/></g>
<g><path style="opacity:1" fill="#757273" d="M 807.5,114.5 C 808.167,114.833 808.833,115.167 809.5,115.5C 808.527,117.068 808.36,118.735 809,120.5C 809.77,121.598 810.603,121.598 811.5,120.5C 811.34,122.153 810.674,123.486 809.5,124.5C 809.539,123.244 809.039,122.244 808,121.5C 807.8,123.32 806.966,124.653 805.5,125.5C 805.586,123.323 806.253,121.323 807.5,119.5C 807.376,118.893 807.043,118.56 806.5,118.5C 806.833,117.167 807.167,115.833 807.5,114.5 Z"/></g>
<g><path style="opacity:1" fill="#444142" d="M 843.5,114.5 C 849.032,113.935 850.032,115.768 846.5,120C 847,120.167 847.5,120.333 848,120.5C 849.713,119.046 850.88,117.212 851.5,115C 853.167,114.333 854.833,114.333 856.5,115C 855.382,119.762 852.715,123.262 848.5,125.5C 848.29,129.38 846.29,131.047 842.5,130.5C 842.472,128.418 843.139,126.584 844.5,125C 842.59,124.592 841.59,123.425 841.5,121.5C 842.467,119.238 843.134,116.905 843.5,114.5 Z"/></g>
<g><path style="opacity:1" fill="#edecec" d="M 909.5,117.5 C 909.5,118.167 909.833,118.5 910.5,118.5C 909.538,121.739 908.205,124.739 906.5,127.5C 906.5,127.167 906.5,126.833 906.5,126.5C 906.528,123.084 907.528,120.084 909.5,117.5 Z"/></g>
<g><path style="opacity:1" fill="#3d3a3b" d="M 912.5,126.5 C 911.911,129.734 909.911,131.067 906.5,130.5C 906.5,129.5 906.5,128.5 906.5,127.5C 908.205,124.739 909.538,121.739 910.5,118.5C 910.78,114.775 912.78,113.608 916.5,115C 914.448,118.6 913.114,122.433 912.5,126.5 Z"/></g>
<g><path style="opacity:1" fill="#3c3839" d="M 929.5,129.5 C 928.5,129.5 927.5,129.5 926.5,129.5C 926.394,126.921 927.061,124.588 928.5,122.5C 928.756,120.063 929.423,117.729 930.5,115.5C 934.122,114.341 937.789,114.175 941.5,115C 941.957,115.414 942.291,115.914 942.5,116.5C 940.779,121.177 938.779,125.677 936.5,130C 934.926,130.699 933.593,130.365 932.5,129C 934.26,125.649 935.594,122.149 936.5,118.5C 935.325,118.281 934.325,118.614 933.5,119.5C 932.457,123.067 931.123,126.4 929.5,129.5 Z"/></g>
<g><path style="opacity:1" fill="#acaaab" d="M 955.5,119.5 C 955.5,120.833 955.5,122.167 955.5,123.5C 957.604,123.201 959.604,123.534 961.5,124.5C 961.376,125.107 961.043,125.44 960.5,125.5C 958.444,124.784 956.277,124.117 954,123.5C 953.652,121.86 954.152,120.527 955.5,119.5 Z"/></g>
<g><path style="opacity:1" fill="#3b3839" d="M 820.5,117.5 C 818.896,118.287 818.229,119.62 818.5,121.5C 817.754,129.739 813.421,132.572 805.5,130C 804.272,128.51 804.272,127.01 805.5,125.5C 806.966,124.653 807.8,123.32 808,121.5C 809.039,122.244 809.539,123.244 809.5,124.5C 810.542,125.791 811.708,125.791 813,124.5C 813.45,122.481 814.283,120.648 815.5,119C 813.648,118.227 812.314,118.727 811.5,120.5C 810.603,121.598 809.77,121.598 809,120.5C 808.36,118.735 808.527,117.068 809.5,115.5C 812.962,114.518 816.629,114.185 820.5,114.5C 820.5,115.5 820.5,116.5 820.5,117.5 Z M 809.5,124.5 C 810.674,123.486 811.34,122.153 811.5,120.5C 812.314,118.727 813.648,118.227 815.5,119C 814.283,120.648 813.45,122.481 813,124.5C 811.708,125.791 810.542,125.791 809.5,124.5 Z"/></g>
<g><path style="opacity:1" fill="#3b3738" d="M 753.5,126.5 C 754.789,123.24 756.122,119.906 757.5,116.5C 757.791,115.351 758.624,114.684 760,114.5C 760.833,114.667 761.667,114.833 762.5,115C 760.878,118.027 759.545,121.194 758.5,124.5C 759.325,125.386 760.325,125.719 761.5,125.5C 762.699,121.901 763.699,118.235 764.5,114.5C 766.288,114.215 767.955,114.548 769.5,115.5C 767.986,119.885 766.32,124.218 764.5,128.5C 763.975,129.192 763.308,129.692 762.5,130C 759.5,130.667 756.5,130.667 753.5,130C 752.209,128.708 752.209,127.542 753.5,126.5 Z"/></g>
<g><path style="opacity:1" fill="#bbbaba" d="M 878.5,129.5 C 877.833,129.5 877.5,129.167 877.5,128.5C 878.128,125.91 879.295,123.577 881,121.5C 881.048,124.413 880.215,127.079 878.5,129.5 Z"/></g>
<g><path style="opacity:1" fill="#605d5e" d="M 727.5,122.5 C 726.942,123.79 725.942,124.623 724.5,125C 726.428,129.27 725.261,130.77 721,129.5C 720.809,127.292 720.309,125.292 719.5,123.5C 719.691,119.467 721.691,117.967 725.5,119C 724.692,120.706 723.359,121.539 721.5,121.5C 721.337,123.857 721.503,126.19 722,128.5C 722.495,126.527 722.662,124.527 722.5,122.5C 724.167,122.5 725.833,122.5 727.5,122.5 Z"/></g>
<g><path style="opacity:1" fill="#989797" d="M 787.5,125.5 C 785.393,126.468 783.059,126.802 780.5,126.5C 780.5,127.5 780.5,128.5 780.5,129.5C 779.566,128.432 779.232,127.099 779.5,125.5C 782.167,125.5 784.833,125.5 787.5,125.5 Z"/></g>
<g><path style="opacity:0.439" fill="#b8b7b7" d="M 960.5,125.5 C 958.393,126.468 956.059,126.802 953.5,126.5C 953.5,127.5 953.5,128.5 953.5,129.5C 952.566,128.432 952.232,127.099 952.5,125.5C 955.167,125.5 957.833,125.5 960.5,125.5 Z"/></g>
<g><path style="opacity:0.816" fill="#dedede" d="M 727.5,128.5 C 730.287,129.477 733.287,129.81 736.5,129.5C 733.313,130.806 729.98,130.806 726.5,129.5C 726.624,128.893 726.957,128.56 727.5,128.5 Z"/></g>
<g><path style="opacity:0.878" fill="#d7d6d6" d="M 740.5,128.5 C 741.209,129.404 742.209,129.737 743.5,129.5C 742.292,130.782 740.958,130.782 739.5,129.5C 739.624,128.893 739.957,128.56 740.5,128.5 Z"/></g>
<g><path style="opacity:0.816" fill="#d6d5d5" d="M 872.5,128.5 C 872.833,128.5 873.167,128.5 873.5,128.5C 874.209,129.404 875.209,129.737 876.5,129.5C 876.083,130.124 875.416,130.457 874.5,130.5C 873.287,130.253 872.62,129.586 872.5,128.5 Z"/></g>
<g><path style="opacity:0.816" fill="#d8d7d7" d="M 927.5,119.5 C 927.263,120.791 927.596,121.791 928.5,122.5C 927.061,124.588 926.394,126.921 926.5,129.5C 927.5,129.5 928.5,129.5 929.5,129.5C 928.432,130.434 927.099,130.768 925.5,130.5C 925.737,129.209 925.404,128.209 924.5,127.5C 925.205,124.646 926.205,121.979 927.5,119.5 Z"/></g>
<g><path style="opacity:1" fill="#f4ef6e" d="M 531.5,129.5 C 531.5,130.5 531.5,131.5 531.5,132.5C 589.5,132.5 647.5,132.5 705.5,132.5C 705.285,130.821 705.952,129.821 707.5,129.5C 707.67,130.822 707.337,131.989 706.5,133C 647.5,133.667 588.5,133.667 529.5,133C 530.085,131.698 530.751,130.531 531.5,129.5 Z"/></g>
<g><path style="opacity:1" fill="#f7de36" d="M 108.5,113.5 C 108.938,113.435 109.272,113.601 109.5,114C 108.817,121.166 108.15,128.332 107.5,135.5C 71.4884,148.835 35.4884,162.168 -0.5,175.5C -0.5,166.833 -0.5,158.167 -0.5,149.5C 35.8176,137.505 72.151,125.505 108.5,113.5 Z"/></g>
</svg>
