<?xml version="1.0" encoding="UTF-8"?>
<!DOCTYPE svg PUBLIC "-//W3C//DTD SVG 1.1//EN" "http://www.w3.org/Graphics/SVG/1.1/DTD/svg11.dtd">
<svg xmlns="http://www.w3.org/2000/svg" version="1.1" width="1330px" height="248px" style="shape-rendering:geometricPrecision; text-rendering:geometricPrecision; image-rendering:optimizeQuality; fill-rule:evenodd; clip-rule:evenodd" xmlns:xlink="http://www.w3.org/1999/xlink">
<g><path style="opacity:1" fill="#221e1f" d="M -0.5,-0.5 C 442.833,-0.5 886.167,-0.5 1329.5,-0.5C 1329.5,-0.166667 1329.5,0.166667 1329.5,0.5C 1085.5,0.5 841.5,0.5 597.5,0.5C 582.163,0.333412 566.83,0.500079 551.5,1C 529.955,8.23514 508.622,15.7351 487.5,23.5C 459.87,32.265 432.536,41.5983 405.5,51.5C 389.622,56.4588 373.955,61.7922 358.5,67.5C 342.622,72.4588 326.955,77.7922 311.5,83.5C 284.88,91.9281 258.547,100.928 232.5,110.5C 215.622,115.792 198.955,121.459 182.5,127.5C 165.879,132.595 149.546,138.262 133.5,144.5C 119.216,148.595 105.216,153.261 91.5,158.5C 77.61,162.796 63.9433,167.463 50.5,172.5C 33.4262,177.969 16.4262,183.636 -0.5,189.5C -0.5,126.167 -0.5,62.8333 -0.5,-0.5 Z"/></g>
<g><path style="opacity:1" fill="#f09f2e" d="M 597.5,0.5 C 560.676,14.4018 523.676,28.0685 486.5,41.5C 487.455,35.5907 487.789,29.5907 487.5,23.5C 508.622,15.7351 529.955,8.23514 551.5,1C 566.83,0.500079 582.163,0.333412 597.5,0.5 Z"/></g>
<g><path style="opacity:1" fill="#f1a92d" d="M 487.5,23.5 C 487.789,29.5907 487.455,35.5907 486.5,41.5C 460.28,51.4421 433.946,61.1088 407.5,70.5C 405.544,64.588 404.877,58.2547 405.5,51.5C 432.536,41.5983 459.87,32.265 487.5,23.5 Z"/></g>
<g><path style="opacity:1" fill="#f1b12f" d="M 405.5,51.5 C 404.877,58.2547 405.544,64.588 407.5,70.5C 392.125,76.7381 376.459,82.4048 360.5,87.5C 361.126,80.4163 360.459,73.7496 358.5,67.5C 373.955,61.7922 389.622,56.4588 405.5,51.5 Z"/></g>
<g><path style="opacity:1" fill="#f2b830" d="M 358.5,67.5 C 360.459,73.7496 361.126,80.4163 360.5,87.5C 345.538,93.9345 330.205,99.6012 314.5,104.5C 314.151,97.2741 313.151,90.2741 311.5,83.5C 326.955,77.7922 342.622,72.4588 358.5,67.5 Z"/></g>
<g><path style="opacity:1" fill="#272324" d="M 789.5,101.5 C 788.566,102.568 788.232,103.901 788.5,105.5C 795.833,105.5 803.167,105.5 810.5,105.5C 813.853,106.512 815.52,108.846 815.5,112.5C 814.225,119.147 813.059,125.814 812,132.5C 810.878,134.624 809.378,136.457 807.5,138C 796.505,138.5 785.505,138.667 774.5,138.5C 773.467,133.902 772.134,129.402 770.5,125C 779.827,124.5 789.161,124.334 798.5,124.5C 798.433,123.041 798.766,121.708 799.5,120.5C 800.451,119.081 800.784,117.415 800.5,115.5C 792.5,115.5 784.5,115.5 776.5,115.5C 774.041,114.126 773.041,111.96 773.5,109C 774.504,102.142 775.671,95.3082 777,88.5C 777.273,86.6711 778.107,85.1711 779.5,84C 793.068,82.536 806.735,82.036 820.5,82.5C 819.833,87.1667 819.167,91.8333 818.5,96.5C 809.143,96.1684 799.81,96.5017 790.5,97.5C 789.754,98.7362 789.421,100.07 789.5,101.5 Z"/></g>
<g><path style="opacity:1" fill="#2b2728" d="M 825.5,82.5 C 830.5,82.5 835.5,82.5 840.5,82.5C 838.383,96.5375 836.049,110.537 833.5,124.5C 837.833,124.5 842.167,124.5 846.5,124.5C 849.091,110.545 851.424,96.5448 853.5,82.5C 858.5,82.5 863.5,82.5 868.5,82.5C 865.963,100.729 862.463,118.729 858,136.5C 857.25,137.126 856.416,137.626 855.5,138C 843.5,138.667 831.5,138.667 819.5,138C 817.477,134.817 816.977,131.317 818,127.5C 820.718,112.524 823.218,97.5244 825.5,82.5 Z"/></g>
<g><path style="opacity:1" fill="#292526" d="M 874.5,82.5 C 887.837,82.3334 901.171,82.5001 914.5,83C 915.126,83.7504 915.626,84.5838 916,85.5C 915.878,93.5728 914.878,101.573 913,109.5C 912.654,111.848 911.487,113.681 909.5,115C 900.942,116.441 892.276,116.941 883.5,116.5C 882.283,123.801 881.283,131.135 880.5,138.5C 875.5,138.5 870.5,138.5 865.5,138.5C 868.5,119.833 871.5,101.167 874.5,82.5 Z M 899.5,104.5 C 895.167,104.5 890.833,104.5 886.5,104.5C 886.5,103.5 886.5,102.5 886.5,101.5C 886.421,100.07 886.754,98.7362 887.5,97.5C 891.783,96.5078 896.116,96.1744 900.5,96.5C 899.908,99.1272 899.575,101.794 899.5,104.5 Z"/></g>
<g><path style="opacity:1" fill="#272425" d="M 932.5,101.5 C 931.566,102.568 931.232,103.901 931.5,105.5C 938.167,105.5 944.833,105.5 951.5,105.5C 951.5,106.833 951.5,108.167 951.5,109.5C 951.756,111.792 951.423,113.959 950.5,116C 943.508,116.5 936.508,116.666 929.5,116.5C 929.425,119.206 929.092,121.873 928.5,124.5C 937.839,124.334 947.173,124.5 956.5,125C 953.5,129.333 950.5,133.667 947.5,138C 935.505,138.5 923.505,138.667 911.5,138.5C 914.5,119.833 917.5,101.167 920.5,82.5C 934.837,82.3334 949.171,82.5001 963.5,83C 960.5,87.3333 957.5,91.6667 954.5,96C 947.476,96.1689 940.476,96.6689 933.5,97.5C 932.754,98.7362 932.421,100.07 932.5,101.5 Z"/></g>
<g><path style="opacity:1" fill="#292526" d="M 999.5,115.5 C 997.5,115.5 995.5,115.5 993.5,115.5C 993.263,116.791 993.596,117.791 994.5,118.5C 996.475,125.067 998.142,131.733 999.5,138.5C 994.5,138.5 989.5,138.5 984.5,138.5C 982.953,128.644 980.619,118.978 977.5,109.5C 975.188,119.058 973.522,128.725 972.5,138.5C 967.5,138.5 962.5,138.5 957.5,138.5C 960.5,119.833 963.5,101.167 966.5,82.5C 979.504,82.3334 992.504,82.5001 1005.5,83C 1007.44,84.722 1008.44,86.8887 1008.5,89.5C 1007.32,97.2376 1005.82,104.904 1004,112.5C 1002.87,114.141 1001.37,115.141 999.5,115.5 Z M 991.5,104.5 C 987.167,104.5 982.833,104.5 978.5,104.5C 978.5,103.5 978.5,102.5 978.5,101.5C 978.421,100.07 978.754,98.7362 979.5,97.5C 983.783,96.5078 988.116,96.1744 992.5,96.5C 991.908,99.1272 991.575,101.794 991.5,104.5 Z"/></g>
<g><path style="opacity:1" fill="#292526" d="M 1043.5,82.5 C 1057.83,82.5 1072.17,82.5 1086.5,82.5C 1085.83,87.1667 1085.17,91.8333 1084.5,96.5C 1079.79,96.1734 1075.12,96.5067 1070.5,97.5C 1067.63,111.073 1065.29,124.739 1063.5,138.5C 1058.5,138.5 1053.5,138.5 1048.5,138.5C 1050.58,124.455 1052.91,110.455 1055.5,96.5C 1050.83,96.5 1046.17,96.5 1041.5,96.5C 1042.38,91.8683 1043.05,87.2016 1043.5,82.5 Z"/></g>
<g><path style="opacity:1" fill="#292526" d="M 1122.5,115.5 C 1120.5,115.5 1118.5,115.5 1116.5,115.5C 1116.26,116.791 1116.6,117.791 1117.5,118.5C 1119.48,125.067 1121.14,131.733 1122.5,138.5C 1117.5,138.5 1112.5,138.5 1107.5,138.5C 1105.95,128.644 1103.62,118.978 1100.5,109.5C 1098.19,119.058 1096.52,128.725 1095.5,138.5C 1090.5,138.5 1085.5,138.5 1080.5,138.5C 1083.5,119.833 1086.5,101.167 1089.5,82.5C 1102.5,82.3334 1115.5,82.5001 1128.5,83C 1130.44,84.722 1131.44,86.8887 1131.5,89.5C 1130.32,97.2376 1128.82,104.904 1127,112.5C 1125.87,114.141 1124.37,115.141 1122.5,115.5 Z M 1114.5,104.5 C 1110.17,104.5 1105.83,104.5 1101.5,104.5C 1101.5,103.5 1101.5,102.5 1101.5,101.5C 1101.42,100.07 1101.75,98.7362 1102.5,97.5C 1106.78,96.5078 1111.12,96.1744 1115.5,96.5C 1114.91,99.1272 1114.58,101.794 1114.5,104.5 Z"/></g>
<g><path style="opacity:1" fill="#2b2728" d="M 1137.5,82.5 C 1142.5,82.5 1147.5,82.5 1152.5,82.5C 1150.38,96.5375 1148.05,110.537 1145.5,124.5C 1149.83,124.5 1154.17,124.5 1158.5,124.5C 1161.09,110.545 1163.42,96.5448 1165.5,82.5C 1170.5,82.5 1175.5,82.5 1180.5,82.5C 1177.96,100.729 1174.46,118.729 1170,136.5C 1169.25,137.126 1168.42,137.626 1167.5,138C 1155.5,138.667 1143.5,138.667 1131.5,138C 1129.48,134.817 1128.98,131.317 1130,127.5C 1132.72,112.524 1135.22,97.5244 1137.5,82.5 Z"/></g>
<g><path style="opacity:1" fill="#272324" d="M 1189.5,82.5 C 1202.5,82.5 1215.5,82.5 1228.5,82.5C 1227.83,87.1667 1227.17,91.8333 1226.5,96.5C 1217.14,96.1684 1207.81,96.5017 1198.5,97.5C 1196.51,106.439 1194.84,115.439 1193.5,124.5C 1202.86,124.168 1212.19,124.502 1221.5,125.5C 1220.66,129.728 1219.66,133.894 1218.5,138C 1205.5,138.667 1192.5,138.667 1179.5,138C 1177.48,134.817 1176.98,131.317 1178,127.5C 1180.23,114.48 1182.56,101.48 1185,88.5C 1185.8,85.8541 1187.3,83.8541 1189.5,82.5 Z"/></g>
<g><path style="opacity:1" fill="#2d292a" d="M 1243.5,109.5 C 1242.83,105.5 1242.17,105.5 1241.5,109.5C 1240.17,119.167 1238.83,128.833 1237.5,138.5C 1232.5,138.5 1227.5,138.5 1222.5,138.5C 1225.5,119.833 1228.5,101.167 1231.5,82.5C 1236.5,82.5 1241.5,82.5 1246.5,82.5C 1245.33,89.1649 1244.5,95.8316 1244,102.5C 1249.17,96 1254.33,89.5 1259.5,83C 1264.5,82.3333 1269.5,82.3333 1274.5,83C 1268.5,90.3333 1262.5,97.6667 1256.5,105C 1259.56,116.056 1262.22,127.222 1264.5,138.5C 1259.5,138.5 1254.5,138.5 1249.5,138.5C 1247.66,128.803 1245.66,119.136 1243.5,109.5 Z"/></g>
<g><path style="opacity:1" fill="#272324" d="M 1288.5,101.5 C 1287.57,102.568 1287.23,103.901 1287.5,105.5C 1294.83,105.5 1302.17,105.5 1309.5,105.5C 1312.85,106.512 1314.52,108.846 1314.5,112.5C 1313.23,119.147 1312.06,125.814 1311,132.5C 1309.88,134.624 1308.38,136.457 1306.5,138C 1295.51,138.5 1284.51,138.667 1273.5,138.5C 1272.47,133.902 1271.13,129.402 1269.5,125C 1278.83,124.5 1288.16,124.334 1297.5,124.5C 1297.43,123.041 1297.77,121.708 1298.5,120.5C 1299.45,119.081 1299.78,117.415 1299.5,115.5C 1291.5,115.5 1283.5,115.5 1275.5,115.5C 1273.04,114.126 1272.04,111.96 1272.5,109C 1273.5,102.142 1274.67,95.3082 1276,88.5C 1276.27,86.6711 1277.11,85.1711 1278.5,84C 1292.07,82.536 1305.73,82.036 1319.5,82.5C 1318.83,87.1667 1318.17,91.8333 1317.5,96.5C 1308.14,96.1684 1298.81,96.5017 1289.5,97.5C 1288.75,98.7362 1288.42,100.07 1288.5,101.5 Z"/></g>
<g><path style="opacity:1" fill="#f3c232" d="M 311.5,83.5 C 313.151,90.2741 314.151,97.2741 314.5,104.5C 288.12,115.013 261.453,125.013 234.5,134.5C 235.134,126.097 234.467,118.097 232.5,110.5C 258.547,100.928 284.88,91.9281 311.5,83.5 Z"/></g>
<g><path style="opacity:1" fill="#848282" d="M 789.5,101.5 C 789.5,102.5 789.5,103.5 789.5,104.5C 796.687,104.175 803.687,104.509 810.5,105.5C 803.167,105.5 795.833,105.5 788.5,105.5C 788.232,103.901 788.566,102.568 789.5,101.5 Z"/></g>
<g><path style="opacity:1" fill="#858383" d="M 886.5,101.5 C 886.5,102.5 886.5,103.5 886.5,104.5C 890.833,104.5 895.167,104.5 899.5,104.5C 895.03,105.486 890.363,105.819 885.5,105.5C 885.232,103.901 885.566,102.568 886.5,101.5 Z"/></g>
<g><path style="opacity:1" fill="#868484" d="M 932.5,101.5 C 932.5,102.5 932.5,103.5 932.5,104.5C 939.167,104.5 945.833,104.5 952.5,104.5C 952.784,106.415 952.451,108.081 951.5,109.5C 951.5,108.167 951.5,106.833 951.5,105.5C 944.833,105.5 938.167,105.5 931.5,105.5C 931.232,103.901 931.566,102.568 932.5,101.5 Z"/></g>
<g><path style="opacity:1" fill="#8e8c8d" d="M 978.5,101.5 C 978.5,102.5 978.5,103.5 978.5,104.5C 982.833,104.5 987.167,104.5 991.5,104.5C 987.03,105.486 982.363,105.819 977.5,105.5C 977.232,103.901 977.566,102.568 978.5,101.5 Z"/></g>
<g><path style="opacity:1" fill="#8e8c8d" d="M 1101.5,101.5 C 1101.5,102.5 1101.5,103.5 1101.5,104.5C 1105.83,104.5 1110.17,104.5 1114.5,104.5C 1110.03,105.486 1105.36,105.819 1100.5,105.5C 1100.23,103.901 1100.57,102.568 1101.5,101.5 Z"/></g>
<g><path style="opacity:1" fill="#848282" d="M 1288.5,101.5 C 1288.5,102.5 1288.5,103.5 1288.5,104.5C 1295.69,104.175 1302.69,104.509 1309.5,105.5C 1302.17,105.5 1294.83,105.5 1287.5,105.5C 1287.23,103.901 1287.57,102.568 1288.5,101.5 Z"/></g>
<g><path style="opacity:1" fill="#b2b1b1" d="M 1243.5,109.5 C 1242.83,109.5 1242.17,109.5 1241.5,109.5C 1242.17,105.5 1242.83,105.5 1243.5,109.5 Z"/></g>
<g><path style="opacity:1" fill="#f4c932" d="M 232.5,110.5 C 234.467,118.097 235.134,126.097 234.5,134.5C 217.903,140.699 201.236,146.699 184.5,152.5C 185.135,143.766 184.468,135.433 182.5,127.5C 198.955,121.459 215.622,115.792 232.5,110.5 Z"/></g>
<g><path style="opacity:1" fill="#7f7c7d" d="M 776.5,115.5 C 784.5,115.5 792.5,115.5 800.5,115.5C 800.784,117.415 800.451,119.081 799.5,120.5C 799.5,119.167 799.5,117.833 799.5,116.5C 791.648,116.825 783.982,116.492 776.5,115.5 Z"/></g>
<g><path style="opacity:1" fill="#878586" d="M 999.5,115.5 C 997.469,115.972 995.802,116.972 994.5,118.5C 993.596,117.791 993.263,116.791 993.5,115.5C 995.5,115.5 997.5,115.5 999.5,115.5 Z"/></g>
<g><path style="opacity:1" fill="#878586" d="M 1122.5,115.5 C 1120.47,115.972 1118.8,116.972 1117.5,118.5C 1116.6,117.791 1116.26,116.791 1116.5,115.5C 1118.5,115.5 1120.5,115.5 1122.5,115.5 Z"/></g>
<g><path style="opacity:1" fill="#7f7c7d" d="M 1275.5,115.5 C 1283.5,115.5 1291.5,115.5 1299.5,115.5C 1299.78,117.415 1299.45,119.081 1298.5,120.5C 1298.5,119.167 1298.5,117.833 1298.5,116.5C 1290.65,116.825 1282.98,116.492 1275.5,115.5 Z"/></g>
<g><path style="opacity:1" fill="#f5d033" d="M 182.5,127.5 C 184.468,135.433 185.135,143.766 184.5,152.5C 168.537,159.268 152.204,165.268 135.5,170.5C 136.136,161.435 135.47,152.769 133.5,144.5C 149.546,138.262 165.879,132.595 182.5,127.5 Z"/></g>
<g><path style="opacity:1" fill="#f5d634" d="M 133.5,144.5 C 135.47,152.769 136.136,161.435 135.5,170.5C 121.648,176.009 107.648,181.343 93.5,186.5C 94.1389,176.773 93.4722,167.44 91.5,158.5C 105.216,153.261 119.216,148.595 133.5,144.5 Z"/></g>
<g><path style="opacity:1" fill="#4a4855" d="M 990.5,146.5 C 916.762,146.17 843.096,146.503 769.5,147.5C 806.161,146.167 843.161,145.5 880.5,145.5C 917.904,145.497 954.571,145.83 990.5,146.5 Z"/></g>
<g><path style="opacity:1" fill="#0d0a1c" d="M 990.5,146.5 C 990.396,148.703 989.73,150.703 988.5,152.5C 914.998,152.833 841.665,152.499 768.5,151.5C 768.433,150.041 768.766,148.708 769.5,147.5C 843.096,146.503 916.762,146.17 990.5,146.5 Z"/></g>
<g><path style="opacity:1" fill="#353132" d="M 1007.5,157.5 C 1006.5,157.5 1005.5,157.5 1004.5,157.5C 1004.5,160.167 1004.5,162.833 1004.5,165.5C 1003.17,165.5 1001.83,165.5 1000.5,165.5C 1000.5,161.833 1000.5,158.167 1000.5,154.5C 1002.1,154.768 1003.43,154.434 1004.5,153.5C 1003.79,151.158 1002.46,150.825 1000.5,152.5C 999.463,153.93 998.796,155.597 998.5,157.5C 998.922,163.573 996.255,166.073 990.5,165C 993.055,159.338 995.222,153.504 997,147.5C 1001.41,146.368 1005.91,146.201 1010.5,147C 1011.25,150.926 1010.25,154.426 1007.5,157.5 Z M 1004.5,153.5 C 1002.9,153.768 1001.57,153.434 1000.5,152.5C 1002.46,150.825 1003.79,151.158 1004.5,153.5 Z"/></g>
<g><path style="opacity:1" fill="#353233" d="M 1017.5,151.5 C 1016.6,152.209 1016.26,153.209 1016.5,154.5C 1019.08,154.025 1021.08,154.692 1022.5,156.5C 1022.5,156.833 1022.5,157.167 1022.5,157.5C 1019.3,156.964 1016.64,157.631 1014.5,159.5C 1017.31,160.319 1020.31,160.819 1023.5,161C 1022.26,162.154 1021.26,163.488 1020.5,165C 1016.18,165.499 1011.85,165.666 1007.5,165.5C 1009.5,159.167 1011.5,152.833 1013.5,146.5C 1018.51,146.334 1023.51,146.501 1028.5,147C 1026.09,151.128 1022.42,152.628 1017.5,151.5 Z"/></g>
<g><path style="opacity:1" fill="#332f30" d="M 1043.5,150.5 C 1042.33,151.514 1041.66,152.847 1041.5,154.5C 1041.57,156.027 1040.91,157.027 1039.5,157.5C 1035.99,156.945 1032.99,157.612 1030.5,159.5C 1030.62,164.385 1028.28,166.385 1023.5,165.5C 1025.5,159.167 1027.5,152.833 1029.5,146.5C 1034.18,146.334 1038.85,146.501 1043.5,147C 1044.17,147.986 1044.17,149.153 1043.5,150.5 Z"/></g>
<g><path style="opacity:1" fill="#3d393a" d="M 1042.5,155.5 C 1043.67,154.486 1044.34,153.153 1044.5,151.5C 1045.04,149.883 1045.37,148.216 1045.5,146.5C 1047.6,146.201 1049.6,146.534 1051.5,147.5C 1049.83,151.5 1048.17,155.5 1046.5,159.5C 1047.83,160.833 1049.17,160.833 1050.5,159.5C 1051.9,155.461 1053.4,151.461 1055,147.5C 1056.7,146.594 1058.53,146.261 1060.5,146.5C 1058.86,152.92 1056.53,159.087 1053.5,165C 1049.17,165.667 1044.83,165.667 1040.5,165C 1040.04,164.586 1039.71,164.086 1039.5,163.5C 1040.9,160.965 1041.9,158.298 1042.5,155.5 Z"/></g>
<g><path style="opacity:1" fill="#353233" d="M 1066.5,151.5 C 1065.6,152.209 1065.26,153.209 1065.5,154.5C 1068.08,154.025 1070.08,154.692 1071.5,156.5C 1071.5,156.833 1071.5,157.167 1071.5,157.5C 1068.3,156.964 1065.64,157.631 1063.5,159.5C 1066.31,160.319 1069.31,160.819 1072.5,161C 1071.26,162.154 1070.26,163.488 1069.5,165C 1065.18,165.499 1060.85,165.666 1056.5,165.5C 1058.5,159.167 1060.5,152.833 1062.5,146.5C 1067.51,146.334 1072.51,146.501 1077.5,147C 1075.09,151.128 1071.42,152.628 1066.5,151.5 Z"/></g>
<g><path style="opacity:1" fill="#373334" d="M 1092.5,146.5 C 1092.17,147.833 1091.83,149.167 1091.5,150.5C 1088.27,151.237 1084.94,151.903 1081.5,152.5C 1080.96,152.56 1080.62,152.893 1080.5,153.5C 1083.09,154.48 1085.75,154.813 1088.5,154.5C 1089.39,157.906 1088.73,161.24 1086.5,164.5C 1082.22,165.492 1077.88,165.826 1073.5,165.5C 1073.5,163.833 1073.5,162.167 1073.5,160.5C 1077.05,160.905 1080.38,160.405 1083.5,159C 1080.85,158.503 1078.19,158.336 1075.5,158.5C 1075.48,154.564 1076.48,150.897 1078.5,147.5C 1083.12,146.507 1087.79,146.173 1092.5,146.5 Z"/></g>
<g><path style="opacity:1" fill="#e2e1e2" d="M 1092.5,146.5 C 1093.17,146.833 1093.83,147.167 1094.5,147.5C 1093.77,148.708 1093.43,150.041 1093.5,151.5C 1092.83,151.167 1092.17,150.833 1091.5,150.5C 1091.83,149.167 1092.17,147.833 1092.5,146.5 Z"/></g>
<g><path style="opacity:1" fill="#3b3839" d="M 1108.5,150.5 C 1106.62,151.341 1104.62,151.675 1102.5,151.5C 1100.97,156.097 1099.63,160.764 1098.5,165.5C 1096.4,165.799 1094.4,165.466 1092.5,164.5C 1093.88,160.197 1095.54,156.03 1097.5,152C 1096.21,151.51 1094.87,151.343 1093.5,151.5C 1093.43,150.041 1093.77,148.708 1094.5,147.5C 1099.32,146.35 1104.32,146.184 1109.5,147C 1108.66,148.011 1108.33,149.178 1108.5,150.5 Z"/></g>
<g><path style="opacity:1" fill="#383536" d="M 1108.5,150.5 C 1109.36,149.312 1110.36,148.145 1111.5,147C 1115.5,146.333 1119.5,146.333 1123.5,147C 1124.02,147.561 1124.36,148.228 1124.5,149C 1122.6,154.206 1120.6,159.373 1118.5,164.5C 1113.88,165.493 1109.21,165.827 1104.5,165.5C 1105.54,160.42 1106.87,155.42 1108.5,150.5 Z M 1114.5,151.5 C 1115.5,151.5 1116.5,151.5 1117.5,151.5C 1117.17,154.311 1116.34,156.978 1115,159.5C 1113.99,160.337 1112.82,160.67 1111.5,160.5C 1111.9,157.285 1112.9,154.285 1114.5,151.5 Z"/></g>
<g><path style="opacity:1" fill="#363233" d="M 1130.5,151.5 C 1129.6,152.209 1129.26,153.209 1129.5,154.5C 1131.83,154.5 1134.17,154.5 1136.5,154.5C 1137.48,154.811 1138.14,155.478 1138.5,156.5C 1137.57,159.53 1136.23,162.363 1134.5,165C 1130.51,165.499 1126.51,165.666 1122.5,165.5C 1122.58,164.07 1122.25,162.736 1121.5,161.5C 1124.77,160.513 1128.1,160.18 1131.5,160.5C 1132.4,159.791 1132.74,158.791 1132.5,157.5C 1129.83,157.5 1127.17,157.5 1124.5,157.5C 1123.88,153.811 1124.88,150.311 1127.5,147C 1132.15,146.501 1136.82,146.334 1141.5,146.5C 1141.58,147.93 1141.25,149.264 1140.5,150.5C 1137.23,151.487 1133.9,151.82 1130.5,151.5 Z"/></g>
<g><path style="opacity:1" fill="#3d393a" d="M 1157.5,151.5 C 1156.6,152.209 1156.26,153.209 1156.5,154.5C 1158.78,154.923 1160.45,154.256 1161.5,152.5C 1161.38,147.615 1163.72,145.615 1168.5,146.5C 1167.64,149.911 1166.47,153.244 1165,156.5C 1163.4,157.866 1161.57,158.866 1159.5,159.5C 1159,164.499 1156.33,166.333 1151.5,165C 1152.69,163.088 1153.69,161.088 1154.5,159C 1152.43,158.882 1151.09,157.882 1150.5,156C 1151.66,152.853 1152.66,149.686 1153.5,146.5C 1159.04,145.676 1160.38,147.343 1157.5,151.5 Z"/></g>
<g><path style="opacity:1" fill="#383435" d="M 1196.5,164.5 C 1198.77,161.954 1199.94,158.954 1200,155.5C 1198.23,158.032 1196.73,160.699 1195.5,163.5C 1194.87,164.947 1193.7,165.613 1192,165.5C 1186.32,165.311 1180.49,165.311 1174.5,165.5C 1175.75,158.908 1178.09,152.741 1181.5,147C 1186.17,146.333 1190.83,146.333 1195.5,147C 1194.83,148.333 1194.17,149.667 1193.5,151C 1190.5,151.333 1187.5,151.667 1184.5,152C 1182.8,154.587 1181.8,157.421 1181.5,160.5C 1184.52,160.335 1187.52,160.502 1190.5,161C 1189.55,161.718 1189.38,162.551 1190,163.5C 1193.33,158.167 1196.67,152.833 1200,147.5C 1202.06,146.409 1204.23,146.242 1206.5,147C 1205.22,153.056 1204.55,159.223 1204.5,165.5C 1201.61,165.806 1198.95,165.473 1196.5,164.5 Z"/></g>
<g><path style="opacity:1" fill="#3c3939" d="M 1212.5,146.5 C 1220.17,146.5 1227.83,146.5 1235.5,146.5C 1234.14,152.896 1232.47,159.229 1230.5,165.5C 1228.4,165.799 1226.4,165.466 1224.5,164.5C 1226.27,160.356 1227.94,156.19 1229.5,152C 1228.06,151.219 1226.72,151.386 1225.5,152.5C 1223.71,156.384 1222.21,160.384 1221,164.5C 1219.3,165.406 1217.47,165.739 1215.5,165.5C 1216.83,160.833 1218.17,156.167 1219.5,151.5C 1218.18,151.33 1217.01,151.663 1216,152.5C 1214.4,156.461 1212.9,160.461 1211.5,164.5C 1209.58,165.641 1207.58,165.808 1205.5,165C 1208.13,158.938 1210.46,152.772 1212.5,146.5 Z"/></g>
<g><path style="opacity:1" fill="#433f40" d="M 1238.5,146.5 C 1240.17,146.5 1241.83,146.5 1243.5,146.5C 1241.78,152.168 1239.94,157.835 1238,163.5C 1236.23,165.418 1234.06,165.918 1231.5,165C 1234.13,158.938 1236.46,152.772 1238.5,146.5 Z"/></g>
<g><path style="opacity:1" fill="#3a3637" d="M 1246.5,146.5 C 1250.83,146.5 1255.17,146.5 1259.5,146.5C 1258.78,152.82 1256.95,158.82 1254,164.5C 1249.59,165.632 1245.09,165.799 1240.5,165C 1241.33,158.664 1243.33,152.497 1246.5,146.5 Z M 1249.5,151.5 C 1250.87,151.343 1252.21,151.51 1253.5,152C 1252.41,154.443 1251.41,156.943 1250.5,159.5C 1249.28,160.614 1247.94,160.781 1246.5,160C 1247.8,157.273 1248.8,154.44 1249.5,151.5 Z"/></g>
<g><path style="opacity:1" fill="#3e3a3b" d="M 1262.5,146.5 C 1267.17,146.5 1271.83,146.5 1276.5,146.5C 1274.98,152.555 1273.15,158.555 1271,164.5C 1269.3,165.406 1267.47,165.739 1265.5,165.5C 1266.83,160.833 1268.17,156.167 1269.5,151.5C 1268.18,151.33 1267.01,151.663 1266,152.5C 1264.4,156.461 1262.9,160.461 1261.5,164.5C 1259.58,165.641 1257.58,165.808 1255.5,165C 1258.13,158.938 1260.46,152.772 1262.5,146.5 Z"/></g>
<g><path style="opacity:1" fill="#393536" d="M 1294.5,147.5 C 1291.25,150.789 1287.25,152.456 1282.5,152.5C 1281.96,152.56 1281.62,152.893 1281.5,153.5C 1283.74,154.474 1286.08,154.808 1288.5,154.5C 1288.67,155.822 1288.34,156.989 1287.5,158C 1285.1,158.186 1282.77,158.686 1280.5,159.5C 1283.17,160.167 1285.83,160.833 1288.5,161.5C 1287.69,162.814 1286.69,163.981 1285.5,165C 1281.17,165.667 1276.83,165.667 1272.5,165C 1275.05,159.338 1277.22,153.504 1279,147.5C 1284.27,146.176 1289.43,146.176 1294.5,147.5 Z"/></g>
<g><path style="opacity:1" fill="#363233" d="M 1298.5,151.5 C 1297.6,152.209 1297.26,153.209 1297.5,154.5C 1299.83,154.5 1302.17,154.5 1304.5,154.5C 1305.48,154.811 1306.14,155.478 1306.5,156.5C 1305.57,159.53 1304.23,162.363 1302.5,165C 1298.51,165.499 1294.51,165.666 1290.5,165.5C 1290.58,164.07 1290.25,162.736 1289.5,161.5C 1292.77,160.513 1296.1,160.18 1299.5,160.5C 1300.4,159.791 1300.74,158.791 1300.5,157.5C 1297.83,157.5 1295.17,157.5 1292.5,157.5C 1291.9,157.265 1291.57,156.765 1291.5,156C 1292.41,153.105 1293.41,150.272 1294.5,147.5C 1299.41,146.555 1304.41,146.221 1309.5,146.5C 1309.58,147.93 1309.25,149.264 1308.5,150.5C 1305.23,151.487 1301.9,151.82 1298.5,151.5 Z"/></g>
<g><path style="opacity:1" fill="#e7e6e6" d="M 1032.5,151.5 C 1034.17,151.5 1035.83,151.5 1037.5,151.5C 1037.5,152.5 1037.5,153.5 1037.5,154.5C 1035.83,154.5 1034.17,154.5 1032.5,154.5C 1032.5,153.5 1032.5,152.5 1032.5,151.5 Z"/></g>
<g><path style="opacity:1" fill="#d5d5d5" d="M 1043.5,150.5 C 1043.5,151.167 1043.83,151.5 1044.5,151.5C 1044.34,153.153 1043.67,154.486 1042.5,155.5C 1042.5,154.833 1042.17,154.5 1041.5,154.5C 1041.66,152.847 1042.33,151.514 1043.5,150.5 Z"/></g>
<g><path style="opacity:1" fill="#d7d150" d="M 768.5,151.5 C 841.665,152.499 914.998,152.833 988.5,152.5C 988.672,153.492 988.338,154.158 987.5,154.5C 914.335,153.501 841.002,153.167 767.5,153.5C 767.328,152.508 767.662,151.842 768.5,151.5 Z"/></g>
<g><path style="opacity:1" fill="#f2ea3b" d="M 767.5,153.5 C 841.002,153.167 914.335,153.501 987.5,154.5C 985.871,159.735 983.871,164.735 981.5,169.5C 908.331,169.833 835.331,169.499 762.5,168.5C 763.572,163.285 765.238,158.285 767.5,153.5 Z"/></g>
<g><path style="opacity:1" fill="#c0bfbf" d="M 1017.5,151.5 C 1018.92,153.308 1020.92,153.975 1023.5,153.5C 1023.74,154.791 1023.4,155.791 1022.5,156.5C 1021.08,154.692 1019.08,154.025 1016.5,154.5C 1016.26,153.209 1016.6,152.209 1017.5,151.5 Z"/></g>
<g><path style="opacity:1" fill="#c0bfbf" d="M 1066.5,151.5 C 1067.92,153.308 1069.92,153.975 1072.5,153.5C 1072.74,154.791 1072.4,155.791 1071.5,156.5C 1070.08,154.692 1068.08,154.025 1065.5,154.5C 1065.26,153.209 1065.6,152.209 1066.5,151.5 Z"/></g>
<g><path style="opacity:1" fill="#bab9b9" d="M 1081.5,152.5 C 1083.83,153.167 1086.17,153.833 1088.5,154.5C 1085.75,154.813 1083.09,154.48 1080.5,153.5C 1080.62,152.893 1080.96,152.56 1081.5,152.5 Z"/></g>
<g><path style="opacity:1" fill="#c3c2c2" d="M 1130.5,151.5 C 1132.16,153.06 1134.16,154.06 1136.5,154.5C 1134.17,154.5 1131.83,154.5 1129.5,154.5C 1129.26,153.209 1129.6,152.209 1130.5,151.5 Z"/></g>
<g><path style="opacity:1" fill="#bcbbbb" d="M 1157.5,151.5 C 1158.21,153.842 1159.54,154.175 1161.5,152.5C 1160.45,154.256 1158.78,154.923 1156.5,154.5C 1156.26,153.209 1156.6,152.209 1157.5,151.5 Z"/></g>
<g><path style="opacity:1" fill="#b6b5b5" d="M 1282.5,152.5 C 1284.5,153.167 1286.5,153.833 1288.5,154.5C 1286.08,154.808 1283.74,154.474 1281.5,153.5C 1281.62,152.893 1281.96,152.56 1282.5,152.5 Z"/></g>
<g><path style="opacity:1" fill="#c3c2c2" d="M 1298.5,151.5 C 1300.16,153.06 1302.16,154.06 1304.5,154.5C 1302.17,154.5 1299.83,154.5 1297.5,154.5C 1297.26,153.209 1297.6,152.209 1298.5,151.5 Z"/></g>
<g><path style="opacity:1" fill="#979596" d="M 1000.5,152.5 C 1001.57,153.434 1002.9,153.768 1004.5,153.5C 1003.43,154.434 1002.1,154.768 1000.5,154.5C 1000.5,158.167 1000.5,161.833 1000.5,165.5C 999.833,162.833 999.167,160.167 998.5,157.5C 998.796,155.597 999.463,153.93 1000.5,152.5 Z"/></g>
<g><path style="opacity:1" fill="#9a9899" d="M 1022.5,157.5 C 1019.95,158.255 1017.28,158.922 1014.5,159.5C 1016.64,157.631 1019.3,156.964 1022.5,157.5 Z"/></g>
<g><path style="opacity:1" fill="#999798" d="M 1039.5,157.5 C 1036.61,158.245 1033.61,158.912 1030.5,159.5C 1032.99,157.612 1035.99,156.945 1039.5,157.5 Z"/></g>
<g><path style="opacity:1" fill="#9a9899" d="M 1071.5,157.5 C 1068.95,158.255 1066.28,158.922 1063.5,159.5C 1065.64,157.631 1068.3,156.964 1071.5,157.5 Z"/></g>
<g><path style="opacity:1" fill="#959394" d="M 1124.5,157.5 C 1127.17,157.5 1129.83,157.5 1132.5,157.5C 1132.74,158.791 1132.4,159.791 1131.5,160.5C 1129.49,158.917 1127.16,157.917 1124.5,157.5 Z"/></g>
<g><path style="opacity:1" fill="#959394" d="M 1292.5,157.5 C 1295.17,157.5 1297.83,157.5 1300.5,157.5C 1300.74,158.791 1300.4,159.791 1299.5,160.5C 1297.49,158.917 1295.16,157.917 1292.5,157.5 Z"/></g>
<g><path style="opacity:1" fill="#d2d1d1" d="M 1196.5,164.5 C 1196.5,163.833 1196.17,163.5 1195.5,163.5C 1196.73,160.699 1198.23,158.032 1200,155.5C 1199.94,158.954 1198.77,161.954 1196.5,164.5 Z"/></g>
<g><path style="opacity:1" fill="#bdbcbc" d="M 1007.5,157.5 C 1006.07,160.028 1005.07,162.695 1004.5,165.5C 1004.5,162.833 1004.5,160.167 1004.5,157.5C 1005.5,157.5 1006.5,157.5 1007.5,157.5 Z"/></g>
<g><path style="opacity:1" fill="#f6dc35" d="M 91.5,158.5 C 93.4722,167.44 94.1389,176.773 93.5,186.5C 80.1667,191.5 66.8333,196.5 53.5,201.5C 53.5,191.833 53.5,182.167 53.5,172.5C 52.5,172.5 51.5,172.5 50.5,172.5C 63.9433,167.463 77.61,162.796 91.5,158.5 Z"/></g>
<g><path style="opacity:1" fill="#f8f49d" d="M 762.5,168.5 C 835.331,169.499 908.331,169.833 981.5,169.5C 908.332,170.832 834.999,170.832 761.5,169.5C 761.624,168.893 761.957,168.56 762.5,168.5 Z"/></g>
<g><path style="opacity:1" fill="#f7e337" d="M 50.5,172.5 C 51.5,172.5 52.5,172.5 53.5,172.5C 53.5,182.167 53.5,191.833 53.5,201.5C 35.6392,208.231 17.6392,214.565 -0.5,220.5C -0.5,210.167 -0.5,199.833 -0.5,189.5C 16.4262,183.636 33.4262,177.969 50.5,172.5 Z"/></g>
<g><path style="opacity:1" fill="#313131" d="M -0.5,245.5 C 0.833333,245.5 1.5,246.167 1.5,247.5C 0.833333,247.5 0.166667,247.5 -0.5,247.5C -0.5,246.833 -0.5,246.167 -0.5,245.5 Z"/></g>
</svg>
